<svg xmlns="http://www.w3.org/2000/svg" viewBox="0 0 72.91 72.02"><defs><style>.cls-1{fill:#413620;}</style></defs><g id="Layer_2" data-name="Layer 2"><g id="Layer_1-2" data-name="Layer 1"><path class="cls-1" d="M46.29,18.58h.17c.11,0,.17,0,.17.05s-.17,0-.17-.05c1,0,1.66.7,2,2.09l.05.45A5.69,5.69,0,0,1,47.7,24l-.57.86A13.29,13.29,0,0,1,45.45,27a19.5,19.5,0,0,1-2,1.84,16.79,16.79,0,0,1-2.32,1.89l-.44.38c0-.12,0-.18.13-.18a11.18,11.18,0,0,1-1.78,1.22,14.93,14.93,0,0,0-1.33.76A49.73,49.73,0,0,1,33,35.23a.1.1,0,0,1,.11-.11,13.67,13.67,0,0,1-2.32.94c-1.12.41-1.69.61-1.71.61-.37.4-.54.71-.53.92h0l-.07-.14q-.25.6-.51.69c0,.13,0,.2-.07.2v0a.88.88,0,0,1-.41.59,4,4,0,0,1-.75,1.27,2,2,0,0,0-.29.6c-.09,0-.16.14-.22.43-.14,0-.29.21-.46.57a1.16,1.16,0,0,0,0,.28c-.11,0-.4.39-.86,1.16l.11.23q-.29,0-.57.72a.64.64,0,0,0-.08.45l-.17-.06c0,.1-.07.19-.22.27a1.7,1.7,0,0,1-.39.71c-.06.34-.12.51-.15.51l0,0v.26l-.25-.12h.09v-.09l.14.22q-.22,0-.45.48A.63.63,0,0,1,23,47c-.22.12-.33.21-.32.28h0a27.17,27.17,0,0,1,4.57-2.71,26.63,26.63,0,0,1,5.9-2.07c.72-.18,2.08-.41,4.09-.68v0h.08l4.38-.23s-.06.06-.17.06v-.13l.25.13h.8s-.05,0-.05-.13l.22.12a.63.63,0,0,1,.28,0s-.06.06-.17.06v-.13l.25.13h.36s-.05,0-.05-.13l.25.13h1.15a1,1,0,0,1,.73.86l-.8.22v-.07c-.2,0-.3.08-.3.17l-.22-.11a.76.76,0,0,1-.33,0h-.35l-.15,0s-.09,0-.28,0H41.17c.06,0,.1,0,.13.14L41,42.78H40.8l-.47.07v0H40c-.2,0-.51,0-.95.07,0,0,0,0-.05,0-.92,0-1.37.12-1.35.25L37.34,43h0s0,0,0,.13L37.14,43a.12.12,0,0,0-.1.13l-.45-.07a15.93,15.93,0,0,0-1.73.33q-.18,0-.18,0A26.59,26.59,0,0,0,29,45.1a22.66,22.66,0,0,0-4.48,2.49,11.77,11.77,0,0,0-2.11,1.6,1.73,1.73,0,0,1-1.1.36h-.18l-.19-.47,0-.26h0s-.06-.07-.06-.22V48.5a.29.29,0,0,1,.08-.17s.06-.09.06-.28c.08,0,.13-.07.14-.22s.19-.15.33-.44v-.21l.24-.24c0,.11,0,.17-.09.17a1.8,1.8,0,0,1,.31-.67,3,3,0,0,1,.6-.95l0,.12h.17s-.08.06-.28.06l0-.34c.15,0,.23,0,.24.11h.18s-.08.06-.27.06l-.05-.18.4-.68v-.21l.25.13s0,0,0,.11-.12-.11-.12-.34c.08,0,.15-.1.19-.3l.2-.07-.05-.45q.45-.06.42-.33c0-.13.12-.37.39-.73h.06v0s0,.06-.05.06q0-.39.18-.39v0L24.22,42l.51-.47q0,.15-.06.15l.24-.38.22-.11h-.19V41c.25-.39.44-.58.58-.58s0,0-.1,0h0l-.1-.14.21-.28h0a1.64,1.64,0,0,0,.48-.82s.12-.09.19-.27l.2.1h-.09v.08L26.23,39a.44.44,0,0,0,0-.36l.25.11v0l-.09-.16.37-.19v.18h-.18v-.22c.11,0,.17,0,.18.11s-.07-.08-.07-.24l.27-.15c0,.08,0,.11-.07.11l0,.06,0-.17c0-.15.13-.22.33-.22,0,0-.06,0-.18,0l0-.18.13.06s0-.07.08-.13a.42.42,0,0,1,0-.24h.19l0,0v.24h-.07c.05-.34.11-.5.18-.5L27.33,37c.12,0,.18,0,.19.11h.05a29.88,29.88,0,0,1-4.52.83q-2.14.16-2.4.24a.35.35,0,0,0-.21-.07h-.05s.05,0,.05.07c-.62-.1-.94-.25-1-.48v0c-.08,0-.13-.17-.16-.41v-.11a.2.2,0,0,1,.23-.22l.09.06v-.13l.25.13c-.06,0-.09,0-.09-.13L20,37a.73.73,0,0,1,.33,0v0c.2,0,.3-.05.29-.09.19,0,.28,0,.29,0a24.75,24.75,0,0,0,3.82-.53v.07a17.38,17.38,0,0,0,2.68-.69c.77-.14,1.15-.33,1.12-.57a23.38,23.38,0,0,0,2.73-3.82h.1c0-.19,0-.29.08-.3v0l0-.26c.11,0,.24-.1.39-.28.13,0,.3-.22.49-.65l.06,0v.2a1.43,1.43,0,0,0-.31,0c.19-.21.27-.38.25-.5h.21l0,0a.9.9,0,0,1,.42-.4c0-.23,0-.34.18-.34l0-.19.31-.5.19.08s0,0,0,.11h-.14c0-.22.13-.33.3-.33,0,0,0,.06-.07.06a.11.11,0,0,0,0-.1l0-.36.28.12,2.28-2.65,0,0-.11-.19.38-.19q0,.12-.18.12l0-.24.11.06.43-.19a33.74,33.74,0,0,1,2.91-2.68c.69-.54,1.67-1.21,2.95-2A6.52,6.52,0,0,1,46.29,18.58Zm-6.42,4.48-.92.6.09.15a2.5,2.5,0,0,1-.5.1s.05-.06.16-.06,0,.11-.13.11l0-.16h.14v.25l-.19.05c0-.09,0-.14.11-.14a.56.56,0,0,0-.08.39h-.18a3.38,3.38,0,0,0-.6.45c0-.12.05-.18.14-.18a.47.47,0,0,1-.22.28.3.3,0,0,1-.2.29v.22l-.1-.06c0,.07-.18.26-.55.57h0s-.16.2-.49.43c0,0-.48.59-1.38,1.78h0l0-.1.13.26a.71.71,0,0,0-.47.25.64.64,0,0,0-.16.42c-.15,0-.33.19-.54.58,0,.06-.16.2-.48.43,0-.08,0-.12.14-.12l0-.1.09.17c-.32.32-.45.48-.41.48v.17c-.1,0-.15.08-.14.25l-.12-.07v-.24h0a.91.91,0,0,1-.32.67c-.1,0-.13.09-.08.28h-.06l0,0a.64.64,0,0,0-.33.56L32.06,32c0,.1-.11.23-.36.42a.54.54,0,0,1-.18.36l0,.19c-.1,0-.26.17-.48.5a3.32,3.32,0,0,1-.4.56h-.38s.08-.06.28-.06l0,.25-.1.14s0,.09,0,.28c-.09,0-.18.11-.29.33h-.24s0-.05.14-.05c-.07.18-.11.27-.14.27l-.07-.12A13.2,13.2,0,0,0,32,34.19a8.58,8.58,0,0,0,2.4-1.12v.15A36,36,0,0,0,40.09,30a26.22,26.22,0,0,0,4.68-4,14.09,14.09,0,0,0,2.54-3.57,5.68,5.68,0,0,0,.41-1.93c-.23-.64-.57-1-1-1a2.54,2.54,0,0,0-.66-.05C44.66,19.6,42.61,20.79,39.87,23.06Zm-3.09,2.26a.13.13,0,0,0-.09.14h0S36.74,25.41,36.78,25.32Zm.68-.53v-.11c-.08,0-.12,0-.12.11Zm.4-.44v-.17h-.11v.17Zm.69-.61,0-.11H38.4l0,.11ZM46,25.32v-.08c-.07,0-.09,0-.07-.08v.08C45.94,25.24,46,25.27,46,25.32Zm.84-1.08v-.11h-.17l0,.11Z"/><path class="cls-1" d="M51.7,18.41,58.85,6l-.17-.13L51.16,17.46C51.35,17.77,51.53,18.09,51.7,18.41Z"/><path class="cls-1" d="M48.9,14.85l4.53-12-.19-.09L48.17,14.3C48.42,14.47,48.66,14.65,48.9,14.85Z"/><path class="cls-1" d="M44.76,12.76l.32.1,2.47-12-.2,0-3.1,11.87Z"/><path class="cls-1" d="M36.75,14,35.17.35,35,.38l.83,13.19C36.1,13.7,36.43,13.84,36.75,14Z"/><path class="cls-1" d="M32.11,12.61,29,1.87l-.21.07,2.43,10.61C31.54,12.56,31.83,12.58,32.11,12.61Z"/><path class="cls-1" d="M40.83,12.69,41.4,0h-.21L39.93,12.92C40.23,12.83,40.53,12.75,40.83,12.69Z"/><path class="cls-1" d="M20.38,19.93,13,12.86,12.9,13,20,20.79C20.15,20.5,20.26,20.21,20.38,19.93Z"/><path class="cls-1" d="M27.32,13.11,23.18,4.52,23,4.63l3.62,8.76C26.85,13.3,27.08,13.19,27.32,13.11Z"/><path class="cls-1" d="M23.19,15.72,17.8,8.22l-.18.15,5,7.93C22.83,16.1,23,15.9,23.19,15.72Z"/><path class="cls-1" d="M51.86,46l12,13-.15.17L50.79,46.72C51.15,46.48,51.51,46.22,51.86,46Z"/><path class="cls-1" d="M57.08,40.73l13.77,6.71-.09.21L56.33,41.72Q56.72,41.24,57.08,40.73Z"/><path class="cls-1" d="M54.58,43.64,67.8,53.53l-.12.19-14-9.21C54,44.23,54.27,43.94,54.58,43.64Z"/><path class="cls-1" d="M59.05,37.21l13.86,3.7,0,.23L58.57,38.28C58.74,37.93,58.9,37.57,59.05,37.21Z"/><path class="cls-1" d="M40.89,57.31l.9,14.33-.21,0L40,57.92C40.29,57.73,40.59,57.53,40.89,57.31Z"/><path class="cls-1" d="M44.22,53.93l3.7,16.15-.21.07L43.36,55C43.66,54.67,43.94,54.31,44.22,53.93Z"/><path class="cls-1" d="M46.48,49.82l7.27,17.57-.19.11L45.78,51.35C46,50.85,46.26,50.34,46.48,49.82Z"/><path class="cls-1" d="M49.08,47.82l10,15.84-.18.14-11-15.31Z"/><polygon class="cls-1" points="53.7 20.77 62.88 15.89 62.97 16.09 53.24 22.01 53.7 20.77"/><path class="cls-1" d="M57.22,28.28l13.56-1.66,0,.23L57.28,29.36C57.28,29,57.25,28.65,57.22,28.28Z"/><path class="cls-1" d="M56,24.31,69.62,20l.06.22L56.5,25.29A8.09,8.09,0,0,0,56,24.31Z"/><path class="cls-1" d="M36.79,59.27,35.55,72h-.21l.56-12.57C36.2,59.39,36.5,59.34,36.79,59.27Z"/><path class="cls-1" d="M58.61,32.84l13.78.95,0,.23-14-.08C58.48,33.62,58.54,33.25,58.61,32.84Z"/><path class="cls-1" d="M19,24.28a8.79,8.79,0,0,0-.62,1L3.07,17.83l.09-.21L19,24.14A.66.66,0,0,0,19,24.28Z"/><path class="cls-1" d="M32.16,59.3l.33.06-3.1,11.86-.2,0,2.47-12Z"/><path class="cls-1" d="M17.54,27.65l-.25,1.06L1,24.36l.05-.23L17.6,27.44A1.66,1.66,0,0,0,17.54,27.65Z"/><path class="cls-1" d="M16.71,31.18a8.1,8.1,0,0,0-1.68,1l-15-1,0-.23L16.76,31Z"/><path class="cls-1" d="M25.53,54.65,18.06,66.18l-.17-.12L24.47,54.6Z"/><path class="cls-1" d="M20.76,53.83,13.23,62.1l-.15-.16L20,53.51A7.85,7.85,0,0,0,20.76,53.83Z"/><path class="cls-1" d="M28.61,57.63,23.5,69.25l-.19-.09L27.9,57C28.13,57.24,28.36,57.44,28.61,57.63Z"/><path class="cls-1" d="M13.48,42.08,3.77,45.16l-.06-.22,9.84-3.79C13.52,41.46,13.5,41.77,13.48,42.08Z"/><path class="cls-1" d="M14.37,37.09,2.61,38.53l0-.23L14.83,36A10.14,10.14,0,0,0,14.37,37.09Z"/><path class="cls-1" d="M16.68,51.26,9.16,57.13,9,57l7.13-6.25C16.34,50.89,16.5,51.08,16.68,51.26Z"/><path class="cls-1" d="M14.13,47.09,6,51.43l-.09-.21,8-4.88C14,46.6,14.05,46.85,14.13,47.09Z"/></g></g></svg>