<svg xmlns="http://www.w3.org/2000/svg" viewBox="0 0 168.82 84.98"><defs><style>.cls-1{fill:#fff;}.cls-2{fill:#f2cf63;}</style></defs><g id="Layer_2" data-name="Layer 2"><g id="Layer_1-2" data-name="Layer 1"><path class="cls-1" d="M40.82,25.82V26s-.06,0-.08-.1a5.61,5.61,0,0,1,5.84,3l.13.63a4.17,4.17,0,0,1,0,2l.19,0-.66,2.31h-.08l.13.15-1,1.92h.13c-1.06,2-1.71,3-1.93,3l.13.14.05.23c-.37,0-.61.37-.73,1-.16,0-.35.29-.58.81q-.49,0-.66.81h0a15.23,15.23,0,0,1,3.48-.73l1.55-.16q4.8-.45,7.7,4.35a8,8,0,0,1,.45,1.34,9.18,9.18,0,0,1,.13,3.4c.09,0,.16.08.21.29-.18,0-.28.14-.32.37l.14,0q-.1,1.86-.48,1.89l.11.15A42.77,42.77,0,0,1,52.48,59a39.92,39.92,0,0,1-4.07,6.89c-.82,1.31-1.33,2-1.54,2a13.49,13.49,0,0,1-2.52,2.91c-1.08,1.15-1.75,1.73-2,1.75,0,.33-1.44,1.63-4.48,3.88a23.75,23.75,0,0,1-6.29,3.06l-.26,0,0-.08a2.09,2.09,0,0,1-1,.29l-.76.08c-2.62-.28-4-.74-4.14-1.39-.58,0-1.55-1-2.93-3.09h.13a7.71,7.71,0,0,1-1.18-2.88L21.27,72a20.93,20.93,0,0,1-.08-8.49H21l.73-2.86c-.07,0-.12-.1-.16-.31.28,0,.5-.61.66-1.78.82-2.43,1.47-4.18,1.94-5.27l.29,0,.07.28H24.5v0a.92.92,0,0,1-.24-.47c.3,0,.47.07.52.26l.06,0-.16-.18c.05-.19.08-.3.08-.32s-.05.14,0,.4l-.34,0-.11-.55q.29,0,.21-.42l.32,0,.05.23c.09,0,.12-.06.1-.18v0l-.28.13-.08-.28a50.18,50.18,0,0,1,2.85-6.32c-.07-.36.2-.81.81-1.33l.08.31-.05,0c0-.14.24-.38.76-.71l.05-.58.32.08,0,.13c-.08,0-.15-.11-.21-.34.18,0,.26-.07.24-.16l-.18-.23c.19-.44.35-.66.49-.68l-.21-.19h.29c-.14,0-.22-.09-.26-.28.12,0,.42-.36.89-1l.11.42.21-.89a.32.32,0,0,1-.37-.29q0-.33.42-.39l.05.26h0c.19,0,.34-.35.44-1l-.21-.26c.4-.63.59-1,.55-1.18l.42.13.26,0-.18-.16c.19-.26.3-.37.31-.34l-.34,0c0-.19.14-.4.53-.63,0,.11,0,.16,0,.16a3.55,3.55,0,0,1,.39-.63l.16,0c0,.18-.11.28-.44.32l-.08-.26.63-1,.34.11h.08c-.06-.25.07-.38.36-.39,0,.08,0,.13,0,.13v0L34,35q-.06-.24.36-.81l-.34,0c.54-.9,1.07-1.73,1.57-2.49a1.34,1.34,0,0,1,1,.58l.55.21c.07.33-.58,1.36-1.94,3.09l-2.31,4c-.1.45-.27.7-.5.73l.13.19q-1.07,1.1-3.66,6.89c-.74,1.39-1.45,2.93-2.15,4.61-.16,0-.44.81-.84,2.38l-.24,0-.07,0,0,0,0,.16a50,50,0,0,1-1.8,5.58,4.29,4.29,0,0,1-.32,1.07h.19a23.76,23.76,0,0,0-1.13,5.58,20.66,20.66,0,0,0,0,5l.08.37c.78,3.63,2.27,5.69,4.45,6.18a16.3,16.3,0,0,0,2.23,0l.55,0,.39-.18,0,.15q4.53-1.45,6.23-3.11c0,.14.06.21.08.21,1.29-1.31,2.21-2,2.75-2l.53-.05Q38,75.67,32.12,78.53a5.52,5.52,0,0,0-1.31.34v0l.58-.06a1.46,1.46,0,0,1,.52-.15l0,.07a17.65,17.65,0,0,0,5.52-3.06A4.87,4.87,0,0,0,39,74.5a2,2,0,0,0,1.28-1,2.17,2.17,0,0,0,1.07-1c0-.13.27-.47.84-1,.72-.82,1.17-1.24,1.36-1.25a1.51,1.51,0,0,1-.47,0,3.19,3.19,0,0,1-1.67,1.62c.07.28,0,.43-.29.45l.21.24-1.1.1a20.91,20.91,0,0,1,3.35-3.67,9.74,9.74,0,0,1,1.81-2.09,17.08,17.08,0,0,1,1.83-2.62c1.35-2.17,2.53-4.19,3.54-6.08q3.56-7.78,2.57-12.39c-.27-1.17-1.31-2.16-3.15-3-.75,0-1.15-.17-1.2-.4,0,0,0,.06,0,.16a3.43,3.43,0,0,0-1.1-.18l.05.18-.44-.13-1.13.1a18.59,18.59,0,0,0-7.52,2.6,25.39,25.39,0,0,1-3,2.49l-.6.05q-.18,0-.66-.39l.16-.47c-.16,0-.25-.08-.29-.29l-.08-.29a38,38,0,0,1,3.83-3.17c0-.18.5-.88,1.65-2.12a44.76,44.76,0,0,1,2.88-4.27q2.85-5.37,2.31-7.86C45,28,44,27.51,42.23,27.39l-.29,0a19.5,19.5,0,0,0-5.34,1.44l0-.11-5,2.68c0-.13,0-.19,0-.19,0,.18-1.17.93-3.62,2.26q-7.31,5-12.08,8.72Q6.39,49.9,2.57,50.55l-.26,0C1,50.7.22,50.45.08,49.82L0,49.45c.09,0,.12-.05.1-.16.93,0,1.4.07,1.42.16q1.69-.15,13.81-9.25a109.3,109.3,0,0,1,11.18-8Q35,26.79,40.82,25.82ZM23.68,58.52h.08v-.11C23.69,58.45,23.67,58.48,23.68,58.52ZM24,57.21l.23.1.06,0a.37.37,0,0,1,0-.21h-.14C24,57.11,24,57.15,24,57.21Zm1.33-4.88,0,.11h-.05v-.08Zm.37-.89-.1.16,0,0a.3.3,0,0,1,0-.19Zm.21.68.24,0,0-.06h0C26,52.06,25.91,52.09,25.91,52.12Zm.76-1.18-.26.37H26.3l.27-.37Zm.24-1V50H27V49.9Zm.47-2.73a1.18,1.18,0,0,1-.24,1l0,0,.36-.89,0-.13Zm.34-.55c0,.16,0,.25-.24.26l0-.05.23,0a.76.76,0,0,1,0-.19ZM28,47.88h.1a.68.68,0,0,1,.06-.55C28,47.35,27.91,47.53,28,47.88Zm.34-1.39h.16a.28.28,0,0,0,.23-.24c-.05,0-.08,0-.1-.1A.51.51,0,0,0,28.32,46.49Zm.34-1.65,0,.11h0l0-.08Zm.76-.65v0l.26,0L29.63,44h0C29.46,44,29.4,44.1,29.42,44.19Zm.26-2.91.32-.06.1.42-.34.06Zm.32-.55.34,0,.08.39-.34,0Zm.08-.26.36,0,.08.42-.37,0ZM30.26,43s0,.06-.08.13l.34,0,0,0A.84.84,0,0,1,30.26,43Zm.47-3.62.37,0,.08.45-.34.05Zm0,2.6,0,.1c.07,0,.1,0,.08-.1ZM31,39l.32,0,.08.42-.32,0Zm.5,1.44v0c.07,0,.1-.06.08-.18l0,0A.16.16,0,0,0,31.49,40.41Zm.21-1.62.13,0Zm.18.81v0a.71.71,0,0,1,.32.08l-.05-.32h-.06Q31.87,39.46,31.88,39.6ZM32.07,37l.31,0,.11.44-.34,0Zm.44-.65.34,0,.08.42-.31,0Zm.63-7.1,0,.1-.08,0v-.13Zm.29,7,0,.1h-.08l.06-.1Zm.44-1.63.06.21c0,.23-.1.35-.45.37l0-.21C33.45,34.86,33.6,34.74,33.87,34.7Zm0-.52.37,0,.1.42-.36,0Zm.11,2.22v.08h.13V36.4Zm.1-7.2,0-.05.1,0v.08Zm.34-.55v.05a2.25,2.25,0,0,1,.66-.26l-.08,0Zm1-.34v0l.15,0a3.34,3.34,0,0,1,.63-.29l0,0h-.05A2.4,2.4,0,0,1,35.32,28.31Zm4.79,44.27.34,0-.08.29c.07,0,.12.09.16.26l-.68.37-.32-.37Zm.63-31.83q0,.14-.87,1v0c.2,0,.47-.37.82-1v0ZM42.55,38a.32.32,0,0,1-.06.21h-.07l.07-.19v0Zm.86,31.86,0,.07h0l0-.07Zm.34-.45v0c.23,0,.34,0,.34.06a.89.89,0,0,1,.19-.11l-.08,0A.89.89,0,0,1,43.75,69.44Zm1.84-2.2.1.52-.42-.1-.5.73c0,.11.08.16.13.16-.08-.35.15-.62.71-.81,0-.21,0-.32.16-.32l-.16-.21.32,0v0Zm.44-.55,0-.08h.14l0,0Zm1-1.23,0,0,.24,0v0A.68.68,0,0,1,47,65.46Zm.81-1.1v0s.08-.08.13-.24A.15.15,0,0,0,47.81,64.36Zm.32-.58v0l.26,0,0,0A.38.38,0,0,1,48.13,63.78Zm1.62-2.72a14,14,0,0,1-.86,1.6c-.16,0-.25.19-.27.52h0a6.79,6.79,0,0,0,1.12-2.1v0Zm.6-.84-.08.13h0v-.11Zm.4-.79-.06.11h0l0-.11Zm.31-.81c0,.11-.06.26-.24.47.06,0,.14-.16.27-.47Zm.73-1.52h.08a14.21,14.21,0,0,1,.87-2.44l0,0A14,14,0,0,1,51.79,57.1Z"/><path class="cls-1" d="M63.19,49.42c.33,0,.67.45,1,1.34,0,.07,0,.11-.08.11l.08.42v.41c0,.44-.61,1.09-1.83,1.94a2.56,2.56,0,0,0-.87.5l-1.91.68-.16-.1c-.17.07-.26.13-.26.18L59,54.82h-.56c-.2,0-.52.67-.94,2a.62.62,0,0,1,.08.23.18.18,0,0,0-.16.19c.11,0,.21.19.32.57a3.57,3.57,0,0,1,.78.35l.16-.08H59V58l.15.08c.06,0,.08,0,.08-.08s.08,0,.08.08a9.12,9.12,0,0,0,2.88-1v.08c.37-.15.55-.29.55-.42l.16.11h.08c0-.28.22-.42.65-.42,0-.14.19-.31.55-.52,0,.05,0,.07.08.07.21-.19.32-.33.32-.41h.08l.15.1c0-.17.46-.45,1.36-.84a6.92,6.92,0,0,0,1.76-1.44,12.3,12.3,0,0,0,2.46-1.68l.16.08.08-.18a.07.07,0,0,1-.08-.08l.34-.23v.07l-.08.16a.07.07,0,0,1,.08.08c-.09,0-.25.17-.5.52a.52.52,0,0,1,.24.08v-.08l.34.16a1.32,1.32,0,0,0,.47-.16l.16.24a14.39,14.39,0,0,1-2.39,2.2,37.29,37.29,0,0,1-7.33,4.72,7.36,7.36,0,0,1-2.07.49,2.74,2.74,0,0,1-2.88-1.67c-.13,0-.23-.54-.32-1.6h.08c0-.18-.1-.26-.16-.26a7.91,7.91,0,0,1,1.29-2.7V53.3h.08l.15.08-.08-.16v-.1l.16.1Q61.16,49.43,63.19,49.42Zm-6.47,5.72v.1q-.11.42-.24.42v-.1Q56.58,55.14,56.72,55.14Zm.24-.58v.16H56.8C56.82,54.61,56.87,54.56,57,54.56Zm2.3-2-.31.34c.24-.12.38-.23.42-.34Zm.89-1.1a2.37,2.37,0,0,1-.55.6v.08c.25,0,.46-.22.63-.68Zm.71.34.08.16c-.12,0-.41.33-.87.94a.48.48,0,0,1-.23.08V53h.08a8.6,8.6,0,0,0,3.35-2.17V50.6c0-.1-.05-.15-.16-.15h-.26c-.28,0-.78.35-1.49,1.07C61.36,51.59,61.19,51.68,60.86,51.78Zm-.24-.91V51c.09,0,.17-.08.24-.26A.53.53,0,0,1,60.62,50.87Zm9.88,1.07h.18V52H70.5Zm.34-.16v.16h-.16A.15.15,0,0,1,70.84,51.78Zm-.16.92h.16v-.16C70.74,52.56,70.68,52.61,70.68,52.7Zm.08.08V53h.08v-.18Zm.16-.92h.16a.07.07,0,0,1-.08.08l.08.18v.08h-.16Zm.23.42-.07.18v.16c.1,0,.15,0,.15-.16s-.08,0-.08-.1.08,0,.08-.08Zm0-.76h.16v.08c0,.12,0,.18-.16.18Zm.08.34h.16v.08h-.16Z"/><path class="cls-1" d="M114.8,26.5h.32c.21,0,.31,0,.31.11-.21,0-.31,0-.31-.11,1.86,0,3.13,1.32,3.79,4l.08.84a10.55,10.55,0,0,1-1.54,5.47l-1.08,1.63c0,.22-1.05,1.58-3.17,4.06a37.58,37.58,0,0,1-3.69,3.48,32.57,32.57,0,0,1-4.38,3.56l-.83.71c0-.23.07-.34.23-.34a19.06,19.06,0,0,1-3.35,2.31q-.11,0-2.52,1.44a92.84,92.84,0,0,1-9.06,4.32.19.19,0,0,1,.21-.21,25.61,25.61,0,0,1-4.38,1.78c-2.11.77-3.18,1.15-3.22,1.15-.7.76-1,1.33-1,1.73h0l-.13-.26c-.31.75-.64,1.19-1,1.31,0,.25,0,.37-.13.37v0a1.63,1.63,0,0,1-.76,1.1,7.45,7.45,0,0,1-1.41,2.41,3.19,3.19,0,0,0-.55,1.13q-.27,0-.42.81c-.27,0-.55.39-.87,1.08a2,2,0,0,0,0,.52c-.21,0-.76.73-1.63,2.2l.21.42c-.37,0-.72.45-1.07,1.36a1.24,1.24,0,0,0-.16.87L73,75.54c0,.2-.13.37-.41.53a3.28,3.28,0,0,1-.74,1.33c-.12.65-.22,1-.29,1l0-.05v.5l-.47-.24h.15v-.15l.27.42c-.28,0-.56.33-.84.89a1.39,1.39,0,0,1,.13.42c-.42.22-.62.4-.6.52h-.06a51.91,51.91,0,0,1,8.62-5.11,50.37,50.37,0,0,1,11.14-3.9q2-.53,7.73-1.29v0h.15L106,70c0,.07-.1.11-.31.11v-.24l.47.24h1.52c-.07,0-.1-.08-.1-.24l.42.21a1.27,1.27,0,0,1,.52-.08c0,.07-.1.11-.31.11v-.24l.47.24h.68c-.07,0-.11-.08-.11-.24l.48.24h2.17a1.81,1.81,0,0,1,1.39,1.62l-1.52.42,0-.13c-.36,0-.55.14-.55.31l-.42-.21a1.35,1.35,0,0,1-.63.08v0l.06,0h-.16c-.21,0-.31,0-.31,0l0,0h-.29l-.29,0s-.17,0-.52,0v0l0,0h-3.62c.11,0,.19.09.24.26l-.6-.26h-.34l-.89.13v0h-.69c-.36,0-1,0-1.78.13,0,0,0,0-.1,0-1.73.07-2.58.23-2.54.47l-.53-.26h-.05c.07,0,.11.08.11.24l-.45-.24a.23.23,0,0,0-.18.24l-.84-.13a30.06,30.06,0,0,0-3.28.62c-.22,0-.34,0-.34,0a50.51,50.51,0,0,0-10.74,3.28,42.59,42.59,0,0,0-8.46,4.71,22.07,22.07,0,0,0-4,3,3.28,3.28,0,0,1-2.07.68h-.34l-.37-.89,0-.5,0,0c-.07,0-.11-.14-.11-.42l0-.2a.54.54,0,0,1,.15-.32c.07,0,.11-.17.11-.52.16,0,.24-.14.26-.42q.24,0,.63-.84V80.5l.45-.45c0,.21,0,.32-.16.32a3.21,3.21,0,0,1,.57-1.26,6.64,6.64,0,0,1,1.13-1.81l0,.24h.32c0,.07-.16.1-.53.1L69.64,77c.27,0,.42.07.44.21h.34c0,.07-.15.11-.5.11l-.1-.34.76-1.29v-.39l.47.23s-.07.07,0,.21c-.16,0-.24-.21-.24-.62.16,0,.28-.2.37-.58l.37-.13-.08-.84q.84-.14.78-.63a3,3,0,0,1,.74-1.39H73v.11c0,.07,0,.1-.08.1,0-.49.06-.73.34-.73v.08l-.18-.32,1-.89c0,.19,0,.29-.11.29l.45-.73.42-.21h-.37v-.37c.47-.73.84-1.1,1.1-1.1,0,.07,0,.1-.18.1l0,0v0l-.19-.26.39-.52,0,0a3.07,3.07,0,0,0,.89-1.55c.1,0,.23-.16.37-.49l.36.18h-.15v.16l-.16-.26a.9.9,0,0,0,0-.69l.47.21,0,0-.19-.29.71-.36v.34H77.6l0-.42c.21,0,.33.07.34.21s-.13-.15-.13-.45l.53-.29c0,.14,0,.21-.13.21l-.06.11-.07-.32c0-.28.24-.42.62-.42,0,.07-.11.11-.34.11l0-.34.24.1s0-.13.15-.23A1,1,0,0,1,78.6,62H79l0,0v.45h-.13c.09-.63.2-1,.34-1L79,61.29c.23,0,.35.07.37.21h.1a56.78,56.78,0,0,1-8.54,1.57q-4.07.32-4.53.45a.73.73,0,0,0-.4-.13h-.1c.07,0,.1,0,.1.13-1.17-.17-1.78-.47-1.83-.89l0-.05c-.16-.06-.27-.31-.32-.76v-.21q0-.42.45-.42c.12.07.17.1.15.1v-.23l.48.23c-.11,0-.16-.08-.16-.23l.42.21a1.38,1.38,0,0,1,.63-.08v.08c.38,0,.56-.1.55-.19.35,0,.53,0,.55.08a47.11,47.11,0,0,0,7.2-1v.13A31.71,31.71,0,0,0,79.2,59c1.46-.26,2.17-.62,2.12-1.08.42-.15,2.14-2.56,5.16-7.2h.26l-.08,0c0-.35,0-.53.16-.55v0l0-.5c.21,0,.45-.17.73-.52.26,0,.58-.41,1-1.23l.1.05v.36a4.84,4.84,0,0,0-.58,0c.35-.4.51-.72.48-.94h.39l0,0a1.74,1.74,0,0,1,.79-.76c-.06-.42.06-.63.34-.63l0-.36.58-1,.36.16c-.05,0-.07.07-.05.21h-.26c0-.42.24-.63.58-.63,0,.07,0,.11-.13.11a.21.21,0,0,0,.05-.19l-.05-.68.52.24,4.3-5,0,0-.21-.37.71-.36c0,.15-.12.23-.34.23l0-.44.21.1a5.29,5.29,0,0,0,.81-.36,65.83,65.83,0,0,1,5.49-5.06q1.95-1.51,5.57-3.83A12.38,12.38,0,0,1,114.8,26.5ZM102.67,35l-1.73,1.13.16.29a4.13,4.13,0,0,1-.94.18c0-.07.1-.1.31-.1,0,.14-.09.21-.26.21l-.08-.32h.26v.47l-.36.11c-.06-.18,0-.26.21-.26a1,1,0,0,0-.16.73h-.42l.08,0c0-.06-.38.22-1.13.83,0-.22.09-.34.26-.34a.8.8,0,0,1-.42.53.51.51,0,0,1-.36.55v.42l-.19-.11c0,.12-.35.48-1,1.08v0c0,.11-.31.38-.92.81,0,0-.91,1.12-2.62,3.36h0l0-.19.24.5a1.33,1.33,0,0,0-.89.47,1.21,1.21,0,0,0-.29.79c-.3,0-.64.36-1,1.1,0,.1-.31.37-.92.81,0-.16,0-.24.26-.24l0-.18.16.32c-.59.61-.85.91-.76.91l0,0v.37c-.2,0-.28.15-.27.47l-.23-.13V49h.1a1.68,1.68,0,0,1-.6,1.26c-.19,0-.24.17-.16.52h-.1l.05.06a1.22,1.22,0,0,0-.63,1l-.21-.1c0,.17-.21.44-.68.78a1,1,0,0,1-.34.69l0,.36c-.19,0-.5.32-.91,1a6.42,6.42,0,0,1-.76,1h-.71c0-.07.16-.1.52-.1l0,.47-.18.26s-.08.18-.08.53c-.15,0-.34.21-.55.63h-.44c0-.07.08-.11.26-.11-.12.35-.21.52-.26.52l-.13-.23A25.45,25.45,0,0,0,87.82,56q3.83-1.38,4.53-2.12v.29a67.58,67.58,0,0,0,10.74-6,49,49,0,0,0,8.83-7.63,26.42,26.42,0,0,0,4.79-6.73,10.7,10.7,0,0,0,.79-3.64c-.44-1.23-1.09-1.84-2-1.84a5.09,5.09,0,0,0-1.26-.1Q110.42,28.54,102.67,35Zm-5.84,4.27a.24.24,0,0,0-.16.27h.08S96.76,39.41,96.83,39.23Zm1.28-1V38a.19.19,0,0,0-.21.21Zm.76-.84v-.31h-.21v.31Zm1.31-1.15.08-.21h-.37l-.07.21Zm14,3v-.15c-.13,0-.17-.06-.13-.16v.16C114.14,39.08,114.18,39.13,114.15,39.23Zm1.59-2,0-.21h-.32l0,.21Z"/><path class="cls-1" d="M112.73,50.42h.16a.1.1,0,0,1,.1.08l.13-.08h.11a2.28,2.28,0,0,0,.52.63c-.07,0-.08,0,0,.08l.37.34a.87.87,0,0,1-.32.55,4.39,4.39,0,0,1-.57,1.57,10.85,10.85,0,0,0-1.68,5.16h.08l-.11.34a.9.9,0,0,0,1,.79l0,.08.16-.08.16,0a.11.11,0,0,1,.1.08l.13-.08.19.08a15.86,15.86,0,0,0,3.82-1.7,49.6,49.6,0,0,0,5.4-4.51l.18.08c0-.19.22-.46.76-.81l.34-.34.16.08c.16,0,.22-.12.18-.34l.16.07-.11-.15c0-.11,0-.16.14-.16h.07l.19.39v.08l-.16-.08a.51.51,0,0,1-.1.34l0,.08a2.83,2.83,0,0,0,.74-.76h.07l-.05.16h.08s0-.08,0-.08l.13.16a.3.3,0,0,0-.28.26c-.13,0-.24.11-.35.34-.15,0-.22.05-.21.16a.1.1,0,0,1,.11.08l-.39.07c0,.13.09.18.18.16l0-.16h.08a.12.12,0,0,1,.11.08l.52-.23-.13-.19a1.43,1.43,0,0,0,.45-.31l0,.16h.08q-.08-.49.63-.42a.78.78,0,0,0-.37.15l.11.16,0,.08-.26-.16,0,.19.15,0a1.38,1.38,0,0,0,0,.26h-.23l-.16-.08,0,.16h.23c0,.09,0,.18-.18.26l0-.18h-.08a.15.15,0,0,0-.11.18h.08a2.56,2.56,0,0,1-.78.92l-.21-.08.08.24h-.19l.05-.16,0-.08H124l.11.16c-.16,0-.23,0-.21.08a.46.46,0,0,1,.1.23c-1,.89-2.92,2.54-5.74,4.93q-3.09,1.86-4.66,1.88l-.21-.07s-.07,0,0,.07a3.2,3.2,0,0,1-2.23-1.07c-.1,0-.17-.11-.21-.34H111a7.43,7.43,0,0,1-.76-1.83,4.83,4.83,0,0,1,.5-2.89l.13-.15-.13-.16c.09-.23.21-.34.37-.34v-.08l-.14-.16c.13,0,.23-.29.32-.89q.21,0,.39-.42s-.08,0-.08-.07a4.88,4.88,0,0,0,.82-1.66h.07a.11.11,0,0,0,.11.08,2.73,2.73,0,0,1,.21-1.07Zm4.74-4.58,0,.18c0,.16-.08.23-.29.23l0,.08h.16l-.06.16a.66.66,0,0,1,.24.08q0-.18.39-.24l.11.16c-.06,0-.08,0-.08.08h.08c0-.11,0-.16.13-.16a.16.16,0,0,0,.18.16l.08.31a12.58,12.58,0,0,0-2.41,1.76c0,.17-.21.31-.68.42h-.08a.88.88,0,0,1-.5-.47l.16-.08-.32-.47,0-.08C114.5,47.35,115.45,46.64,117.47,45.84Zm4.59,9h.16c0-.08.17-.25.57-.49l.11.15c-.2,0-.29.22-.29.66q.78-.84,1-.84l0-.16h-.11c-.21.06-.29.17-.26.34h-.08c-.07,0-.16-.07-.29-.23l.63-.42,0-.26C122.5,54.35,122,54.77,122.06,54.87Zm0,.24.08.26h.16c.07,0,.13-.1.18-.26V55ZM123.5,54V54l.31.15,0-.15A.63.63,0,0,1,123.5,54Zm.34.08,0,.15H124l0-.15Zm0-.74.18,0,0-.16C123.89,53.14,123.85,53.2,123.87,53.3Zm.18-.26,0,.08h.24l0-.08Zm.37.66-.11.23V54h.18a.54.54,0,0,1,0-.31Zm.42-1.73.1.15q0,.14-.18.27h-.08L124.6,52A.49.49,0,0,0,124.84,52Zm.15-.08h.16l0,.15H125Zm.55.31h.16v.08h-.16Zm.45.39h.18l0,.08H126Z"/><path class="cls-1" d="M128.45,49.45h.08a.07.07,0,0,1,.08.08l.18-.08c.44,0,.8.59,1.1,1.78.11,0,.33-.5.68-1.52.33.06.5.11.5.16v.26h.18l-.07.16c.14.23.27.34.41.34,0,.3.06.45.16.45a6.28,6.28,0,0,0-.84,2.54c-.19.63-.33.94-.42.94l.08.16v.1h-.15v.08h.15l-.15.26h.07l-.18.58c.07,0,.11,0,.11.1s-.19,0-.19.08a.68.68,0,0,1,.08.26c-.09,0-.16.17-.23.5,0,0,.07,0,.07.08s-.28.15-.6.45v.07h.08c0-.17.15-.26.45-.26v.19h-.19l.08.15v.08l-.16.26.08.19c-.07.28-.18.42-.34.42v.07c.12,0,.18,0,.18.08l-.18.34h.08a1.94,1.94,0,0,1-.24.61c.06,0,.08,0,.08.08l-.18.07.1.19a1.84,1.84,0,0,1-.52,1.18h.18v.26c0,.4-.11.6-.34.6v.08l.16.26c-.07,0-.18.14-.34.42v.18h.18v.16h-.26V63l.08.6c-.11,0-.16,0-.16.08l.08.18a1.19,1.19,0,0,0-.34.76l-.18-.07-.16.07v-.07l.08-.19h-.08l-.18.26v.19l.18-.11c.17.07.26.13.26.19a.23.23,0,0,1-.26.26l.16.23h-.08l.08.19v.08c-.21,0-.38.2-.5.6l.08.5V67h-.16a.63.63,0,0,1,.08.26.63.63,0,0,0-.08.26l-.18-.1v.1a.72.72,0,0,1,.08.24c-.25.35-.41.52-.5.52v.08c0,.12.09.18.26.18v.08c0,.11-.11.16-.34.16v.1h.16c0,.39-.12.58-.34.58l.07.18v.08c-.12,0-.23.12-.34.34h.19l-.26.34h.07s0-.07.11-.07v.07c0,.09-.09.18-.26.27l.08.15v.08l-.35.45h-.15v.08h.15v.15h-.15l.08.19c-.13,0-.19,0-.19.07v.27a2.68,2.68,0,0,1-.68,1l.19.08c0-.06,0-.08.07-.08v.08c-.05.22-.16.34-.34.34l.08.18h-.23v.16l.15-.08v.08q0,.18-.15.18c0-.07,0-.1-.11-.1l.11.18a.5.5,0,0,0-.11.26h-.08v-.18h-.08v.18c.06,0,.08,0,.08.08-.17,0-.26,0-.26.16v.18l.11.16h-.11l-.16-.08-.08.18h.16a.74.74,0,0,0-.16.42l-.18-.08v.08l.08.16-.16.1c0-.07,0-.1-.08-.1l-.1.18h.18c0,.11-.08.16-.26.16l.08.18c-.11.28-.27.42-.5.42l.08.19v.07l-.5.5.08.19c-.23,0-.34.1-.34.26h.08c0,.1-.23.36-.68.76q0,.52-2.28,2.46A12.85,12.85,0,0,1,117,82.46v.08l-.16-.08c-.22.09-.34.18-.34.26s-.08,0-.08-.08a11,11,0,0,1-1.28.24V82.8H115V83h-.1l-.24-.19V83h-.1q0-.21-.42-.27v-.08h-.08v.16h-.19c0-.17-.16-.34-.49-.5l-.19.08a5.41,5.41,0,0,0-1.1-1.1c0-.14-.11-.31-.34-.52l-.42-1.18h.16l-.08-.18V79h.19V78.9h-.19l.08-.19v-.15a.66.66,0,0,0-.08-.34.71.71,0,0,1,.42-.53v-.08H112a.81.81,0,0,0,.07.27.6.6,0,0,0-.07.26H112l-.07.16v.07h.15v.19H112v.34c.12,0,.2.16.23.5-.05,0-.08,0-.08.07h.08c0,.07,0,.11-.08.11,0,.72.57,1.28,1.71,1.7a.48.48,0,0,1,.26-.1.48.48,0,0,0,.26.1c0-.07,0-.1.08-.1s.07.18.16.18.1,0,.1-.08l.16.08h.34l.26-.18c0,.07,0,.1.08.1s.25-.2.76-.34a18.77,18.77,0,0,0,2.49-1.62v-.19h.08l.15.11v-.11s-.08,0-.08-.07.71-.57,1.71-1.71c0-.19.2-.38.5-.57v-.11c-.06,0-.08,0-.08-.08.19-.07.44-.43.76-1.1.14,0,.28-.2.44-.6.07,0,.15-.09.24-.26v-.08h-.16a1.81,1.81,0,0,0,.68-.76.07.07,0,0,1-.08-.08c.11,0,.3-.31.58-.94a.07.07,0,0,1-.08-.08c.18,0,.4-.34.68-1,0,0-.08,0-.08-.11s.25-.3.42-.91c0,0,.14-.12.26-.34,0,0-.07,0-.07-.11s.15,0,.15-.16h-.08a10.93,10.93,0,0,1,.5-1v-.08l-.08-.18c.18,0,.52-.85,1-2.54a8.83,8.83,0,0,0,.41-1.21h-.07a4.09,4.09,0,0,0,.34-.91h-.08a15.35,15.35,0,0,0,.76-2.39h.08c0-.07,0-.1-.08-.1,0-.32.36-1.44.94-3.38h-.08l.5-1.81h.18v-.08h-.18l.26-1.18a.87.87,0,0,1-.26.08.07.07,0,0,0,.08.08l-.16.34a.07.07,0,0,1,.08.08c-.23.09-.34.17-.34.26a.07.07,0,0,1,.08.08c-.07,0-.24.2-.5.6l-.34.26c0,.18-.25.55-.76,1.1a.07.07,0,0,1,.08.08l-.34.11.08.15a3.52,3.52,0,0,1-1,.76l.11.19a4.28,4.28,0,0,0-1.13.76,2.14,2.14,0,0,1-.57.15c0-.05,0-.07-.11-.07v.18h-.42l-.16-.11v.11c-1-.19-1.54-.71-1.54-1.55,0-.08,0-.54-.08-1.36a15.48,15.48,0,0,1,2.38-4.66c.88-1.08,1.44-1.63,1.71-1.63L126,51l.34-.24c0,.06,0,.08.08.08v-.18l.15.1.19-.26h-.08a1.74,1.74,0,0,1,1.44-.84h.34ZM111.84,77H112a.17.17,0,0,1,.15.19.13.13,0,0,1-.15.15l-.11-.15Zm.34-.92h.11c0,.11,0,.16.08.16l-.19.68a.62.62,0,0,0-.23-.08C112,76.35,112.06,76.09,112.18,76.09Zm14.31-23.57c0-.06,0-.08-.08-.08a5.74,5.74,0,0,0-1.1,1.52q-.45.28-.45.42H125c-.2.45-.4.68-.61.68l.08.18c-.07,0-.29.37-.68,1.1h.08a5.2,5.2,0,0,1-.68,1.29c.12,0,.18,0,.18.07a1,1,0,0,0-.18.42h.1a1,1,0,0,0-.18.53v.08a.6.6,0,0,1,.26.07c1.09,0,2.84-1.84,5.27-5.52a.85.85,0,0,0,.34-.61h-.08l.08-.15v-.08q-.24,0-.24-.45v-.84l.08-.18h-.26c-.26,0-.72.29-1.36.87-.33.24-.5.44-.5.6Zm-3.41,2.88v.18h.08V55.4Zm.18-.68v.1a.66.66,0,0,1,.24.08v-.08l-.16-.1Zm.5,18.31c0,.23-.09.34-.26.34a.17.17,0,0,0,.18.16.93.93,0,0,1,.16-.42V73Zm.08-18.89-.08.16h.08l.1-.16Zm0-.26V54L124,54V54Zm.34,18.36a.72.72,0,0,1-.08.27h.08l.11-.16v-.11Zm.11-18.78-.11.16h.11l.07-.16ZM124.7,71c0,.15-.06.23-.18.23v-.16h-.08a.69.69,0,0,1-.08.35.81.81,0,0,1,.27.07.89.89,0,0,0,.15-.42V71Zm.08-18.4a.72.72,0,0,1-.15.42h.07a1,1,0,0,0,.16-.23v-.19ZM125,70.12v.08c0,.07,0,.11.08.11s-.12.23-.35.23v.11c.11,0,.16,0,.16.15H125a2,2,0,0,1,.23-.68Zm.23-17.94a.67.67,0,0,1-.15.34h.07l.27-.34Zm.11,17.52a.56.56,0,0,1-.19.34h.19a.64.64,0,0,1,.08-.26V69.7Zm-.19,2.54c0,.13.08.19.19.19v-.19Zm.19-2.8v.08h.15v-.08Zm.34-.58a1.78,1.78,0,0,0-.19.42v.08h.08a.81.81,0,0,1,.19-.42v-.08Zm.68-2.48v.1h.23l.11-.18h-.11A.62.62,0,0,1,126.33,66.38Zm0,.44V67h.08v-.16Zm.08-.26v.08h.15v-.08Zm.08,2.72h.18V69.1Q126.49,69.13,126.49,69.28Zm.18-1.54v.18h.08v-.18Zm.16-2.46a.73.73,0,0,1-.08.26v.08h.08a.67.67,0,0,1,.08-.27v-.07Zm.08-.5v.08h.18v-.08Zm.1,3.3h.16v.1H127ZM127.25,56l-.08.18h.08l.1-.18Zm0,10a.68.68,0,0,1-.08.26h.08l.1-.19V66Zm.1-2.47v.16h.08v-.16Zm.24-8-.08.16v.08h.08a.52.52,0,0,1,.1-.24ZM127.77,66v.26h-.26C127.51,66.13,127.6,66,127.77,66Zm-.08-3.91a.69.69,0,0,1-.1.42h.1a1,1,0,0,0,.16-.42Zm-.1,4.25h.18v.08h-.18Zm.34-2.81-.08.16v.11h.08a.53.53,0,0,1,.1-.27Zm.26-1h.08a.8.8,0,0,0,.18-.26v-.08C128.36,62.13,128.28,62.24,128.19,62.47Zm.26-7.23a.81.81,0,0,1,.08.34l.18-.08a.59.59,0,0,1-.1-.34Zm0,6.13.16.08v-.26A.17.17,0,0,0,128.45,61.37Zm.16-.94h.26a.87.87,0,0,1,.08-.26h-.08C128.78,60.17,128.7,60.25,128.61,60.43Zm.34-.87a.82.82,0,0,1-.24.45H129a.53.53,0,0,1,.1-.34v-.11Zm-.16-5v.08H129v-.08Zm.26,4.58v.19c.11,0,.16-.06.16-.19Zm.08-4.92v.16a.14.14,0,0,0,.16-.16Zm2.05-4.43h.07V50h-.07Z"/><path class="cls-1" d="M143.1,38.29c.75.11,1.14.34,1.17.71.14,0,.28.07.4.26l0,.13a.77.77,0,0,1,.18.45,8.82,8.82,0,0,1-1.31,3l.08.15v.08c-.19,0-.3.18-.32.47-.19.32-.32.48-.39.5l.08.13a9.57,9.57,0,0,0-1.42,2.18c-2.53,3.58-4,5.39-4.45,5.45a1.15,1.15,0,0,1-.86.52l-.32-.34a.56.56,0,0,0,0-.29l-.32.39a1,1,0,0,0-.23,0l.15.21,0,.16c-.12,0-.24.13-.34.34l.08.13c0,.16,0,.24-.18.24l.07.15v.08c-.17,0-.31.28-.42.79l-.2.15a.64.64,0,0,1,.07.24.38.38,0,0,1-.26.31.42.42,0,0,1,.11.21h.08c0-.17,0-.28,0-.31h.08l.16,0c0-.1.18-.3.55-.57l0-.08a.11.11,0,0,1,.11.08,7.92,7.92,0,0,1,1.38-.9v-.07l.16,0h.08a3.2,3.2,0,0,1,.71-.37,1.49,1.49,0,0,1,1.46.53,1.31,1.31,0,0,1,.84.89.69.69,0,0,1,.11.36l0,.06-.05.39h.08a3.79,3.79,0,0,1-.26,1.2l0,.08a.07.07,0,0,0,.08.08,5.14,5.14,0,0,0-.34,1.15l.08,0a3.8,3.8,0,0,0-.13.84l.08.15c-.14,0-.21.07-.21.16h.16a1.65,1.65,0,0,0,.57-.29c0,.05,0,.07.08.05.73-.62,1.09-1,1.08-1.07l.15,0a1.17,1.17,0,0,1,.55-.57s0,.07.08.07V57a.1.1,0,0,1-.1-.08l.15-.08V57l.08,0c0-.19.23-.49.74-.89a7.51,7.51,0,0,1,1.59-1.28c.18-.21.65-.69,1.42-1.42,0,0,0,.08.08.08,0-.16.29-.49.94-1,0-.08.23-.35.68-.81l.08,0a2.54,2.54,0,0,1-.21.91v.08h.08c0-.09.09-.24.31-.47V52c.23,0,.4.12.5.47h-.08l.08.16a1.61,1.61,0,0,1-.71,1.1,7.73,7.73,0,0,0-1.38,1.65l-.16,0a17.06,17.06,0,0,1-2.39,2.33c0,.19-.26.39-.68.58A7.4,7.4,0,0,1,142,59.49c0-.06,0-.08-.08-.08s-.07.15-.21.26c0-.05,0-.08-.08-.08a1.31,1.31,0,0,1-.1.31h-.08l-.16,0a1.09,1.09,0,0,1-.78.45v-.06l-.13.08-.76.08-.4-.18,0,.08a.92.92,0,0,0-.39-.13l.05-.16-.13,0,0-.16c-.1,0-.25-.22-.44-.71,0-.05,0-.08.05-.08a3.51,3.51,0,0,1-.21-.73,2.71,2.71,0,0,1,.31-1.29h-.08a6.54,6.54,0,0,0,.32-1.44.11.11,0,0,1-.11-.07c.16,0,.26-.38.29-1.08l-.18-.21-.13.11a.07.07,0,0,1-.08-.08,6.27,6.27,0,0,0-1.73.78c-.51.37-.76.59-.76.66s-.16.25-.47.5c0,0,0,.08,0,.08a.09.09,0,0,0-.08-.06,2.69,2.69,0,0,1-.76.81,19,19,0,0,1-1.15,1.84c0,.28-.22.68-.76,1.2a.65.65,0,0,0-.29.11.08.08,0,0,0-.11,0l0,0c-.25,0-.47-.18-.68-.66-.14-.19-.22-.28-.24-.28l.11-.45a.46.46,0,0,1-.11-.29c0-.29.05-.46.24-.5l-.08-.13.13,0-.08-.13h.08l-.1-.16v-.05l.15.05a.55.55,0,0,1,.24-.55l-.08-.13v-.08a4.94,4.94,0,0,0,.79-1.89l.36-.7a.63.63,0,0,1,.32-.63h.08a.11.11,0,0,0-.11-.08c.18-.51.32-.77.45-.79a.07.07,0,0,0-.08-.08l.63-1.1s0-.08.08-.08,0,.07.07.06v-.06c-.1,0-.15,0-.15-.13l0-.07c0-.13.1-.21.29-.27l-.11-.13.63-1.26c.12,0,.19-.14.19-.39l.57-.89-.08-.13.34-.26s0,.07.08,0v-.08c-.1,0-.15,0-.15-.13a.76.76,0,0,0,0-.21l.16,0h.07l0-.08c0-.05,0-.07-.08-.07.3-.77.53-1.17.71-1.18,0-.06,0-.08-.08-.08a1,1,0,0,0,0-.24.07.07,0,0,1,.08.08.93.93,0,0,1,.21-.1l0-.13-.08-.16.13-.08a.08.08,0,0,0,.11,0s.06-.21.24-.47l-.16,0v-.16l.16.05,0-.21h.08V45h.08a1.45,1.45,0,0,1,.1-.6l.32.18h.13v-.15l-.32,0v-.08a.18.18,0,0,1,.13-.15l.16,0s0-.06.08-.08l-.11-.13V44c.16,0,.23-.07.21-.16a1.47,1.47,0,0,0-.18-.2l.16-.11.15,0a.28.28,0,0,1,.06-.21h-.08c0,.06,0,.08-.08.08v-.08c.1-.24.19-.37.26-.39h.08l-.05.16.13,0c0-.17.05-.28.05-.31s-.08,0-.08-.06l.13-.07a.34.34,0,0,0,.27.26v.15l.07,0a1.06,1.06,0,0,1,.19-.39l-.16-.06-.13.11c0-.11-.07-.16-.16-.16a.11.11,0,0,1-.08.11v-.08a1,1,0,0,0,.13-.24c.14,0,.22.07.24.11a.82.82,0,0,1,.42-.11v-.08l-.37.06v-.08l.06-.16-.16.08h-.05a.88.88,0,0,0,.18-.39h.08l.13,0,.08-.13a.58.58,0,0,1-.11-.24l.55-.58V41l-.13.24c.09,0,.22-.18.39-.55h-.15c0-.11.06-.16.13-.16l0,.08.14-.1c.1,0,.15.06.15.13s-.09.24-.34.26l.08.16c-.05,0-.17.18-.37.55v.07h.08c.14,0,.2-.14.19-.39l.15,0,.5-.81s-.06,0-.08-.05l-.13.08-.08,0,0-.39H141a.16.16,0,0,1,.18.13.07.07,0,0,0-.08.08h.08v-.08l.13,0,.16-.07a.21.21,0,0,0-.26-.21c.68-.86,1.21-1.31,1.6-1.37v0h-.24l-1,.71v-.08A2.65,2.65,0,0,1,143.1,38.29Zm-8.26,13.18-.1.23v.08c.07,0,.13-.13.18-.34Zm.74-1.65,0,.16c.09,0,.13-.08.13-.19ZM136,49v.16l.08,0V49Zm.19-.23.07,0a.78.78,0,0,0,.19-.47C136.38,48.24,136.29,48.4,136.21,48.72Zm5.92-8.18a.1.1,0,0,0-.08,0l.08.13a2.26,2.26,0,0,1-.61.66c-.07.36-.14.55-.23.55l-.08,0-.16-.07c-.1.26-.22.4-.34.41v.08c.11,0,.16,0,.16.06-.18.36-.35.55-.53.57V43l.08.13c-.19,0-.29.18-.31.5H140v-.13h-.08c-.1,0-.15.07-.13.16v.07c.16,0,.24,0,.24.13l-.13.08c0-.05,0-.07-.08-.05v.05l.08.16c-.3,0-.44.11-.42.26l.16,0c0,.08-.09.17-.27.26l0-.16c-.11,0-.15.1-.13.18v.06h.23v.13h-.08l-.15,0c0,.15-.06.23-.11.23l.08.16,0,.13a3.56,3.56,0,0,0-.71,1.13s.06,0,.08.07c-.16,0-.23.11-.21.32l-.16-.08-.13,0v.15l.16,0,0,.23-.29,0,.16.21c-.1,0-.14.1-.1.31h-.08l-.16,0-.05.13v.08l.08.16a3.88,3.88,0,0,1-.66.89l.16,0c0,.11,0,.16-.13.16l-.16,0V49h.08a7.16,7.16,0,0,1-.5.94l.55-.45c0,.06,0,.08.08.08a9.1,9.1,0,0,1,1.13-1.46c0-.25,0-.38.18-.4a.07.07,0,0,0,.08.08l.13-.24-.16.08h-.05s.14-.16.47-.34a1.12,1.12,0,0,0,.24-.63l.16.08c.48-.73,1-1.44,1.52-2.12l-.08,0c0-.09.07-.2.26-.34,0-.11.16-.33.52-.66l-.08-.13c0-.09.14-.25.48-.5V43c-.06,0-.08,0-.08-.05a16.23,16.23,0,0,0,1.67-3.17v-.16A3.22,3.22,0,0,0,142.13,40.54Zm-5.56,7.31,0,.13c.09,0,.13,0,.13-.15Zm.76-1.44,0,.16c.09,0,.13,0,.13-.16Zm.19-.31,0,.15h.08l0-.15Zm0-.29v.08l.23,0,0-.08Zm.44-.66,0,.16.08,0,0-.14Zm.13-1.12.14,0a.15.15,0,0,1-.14.19Zm.69,3.14.15,0v.07l-.15,0Zm1-5,.16,0,0-.15C139.85,42.07,139.8,42.13,139.82,42.22Zm.13-.79h.16v-.15C140,41.31,140,41.36,140,41.43Zm.16,1.34-.08.16.16,0,.08-.13Zm.16-2,.15,0c0,.1,0,.15-.13.15Zm.73-.91h.08V40c-.07,0-.16.06-.26.19l0-.08C140.79,40,140.86,39.94,141,39.84Zm.34-.32v0q0,.13-.18.27h-.08l0-.08C141.05,39.69,141.15,39.61,141.34,39.52Zm0,5-.13.23.08,0,.13-.24Zm.08-5.19h.08c0,.1,0,.16-.13.16l-.08,0A.16.16,0,0,1,141.47,39.34Zm.18.37h.08c0-.11.06-.17.21-.19l0-.16C141.85,39.38,141.76,39.5,141.65,39.71Zm.19,4a1,1,0,0,1-.05.24h.07l.06-.16v-.08Zm.26-.39,0,.16.05,0v-.13Zm.94-1.68a1.46,1.46,0,0,1-.36.74l0-.16-.13.08.08.16,0,.07-.21.32,0,.08.08,0a10.14,10.14,0,0,0,.6-1.26Zm-.26,1,.16,0,0-.16C142.81,42.52,142.76,42.58,142.78,42.67Zm.6-2.1-.1.31h.08l.1-.31ZM147,53.3l0,.13c.08,0,.13,0,.13-.15Z"/><path class="cls-1" d="M155.93,36.35c.18,0,.36.44.55,1.36l-.1,0,.1.16V38c-.31.67-.52,1-.63,1v.18c.13,0,.19,0,.19.08,1.17-.19,2-.31,2.38-.34l.37.08a.5.5,0,0,1,.23-.11l0,.08a1.24,1.24,0,0,1,.42-.21v.08A8.1,8.1,0,0,1,161,38.4l.34.07,1.16-.26s.07,0,.07.08a5.32,5.32,0,0,0,1.66-.55,1.11,1.11,0,0,0,.47.16c0-.11.29-.25.94-.42v.08l.42-.21,0,.18h.07c0-.12,0-.18.08-.18s.21.07.26,0,.38-.28,1.13-.42a.1.1,0,0,1,.08-.1h.1v.18l.19,0-.11-.15.37,0a.07.07,0,0,1,.08.08,1.15,1.15,0,0,1,.52-.21v.08c0,.19-.2.29-.5.31,0-.07,0-.09-.1-.08s-.49.3-1.47.63l0,.16-.29-.16-1.05.34a.41.41,0,0,0-.26,0l-.08.18-.18-.08h-.08v.19l.89-.08v-.08l.26,0c.06,0,.08,0,.08.08.18-.07.26-.13.26-.18l.19.08a2.51,2.51,0,0,1,.94-.34l.37,0c0,.11-.17.27-.5.5,0,.26-.24.43-.76.5l-.08.15a2.21,2.21,0,0,1,1-.31l0,.16a15.61,15.61,0,0,0-2.52.89.8.8,0,0,0-.36-.08l-.08.18-.45,0h-.08v.18l-.15,0a8.52,8.52,0,0,1-1,.24l-.89.05-.24.21-.44,0c-.07,0-.11,0-.11-.1l-.42.21a.48.48,0,0,0-.29,0q-.42,0-.42.21l-.18-.08a8.34,8.34,0,0,0-2.09.5l-.19-.08-.44,0c-.06,0-.08,0-.08.08l-.63-.13,0,.18-.48-.05-.42.11a.47.47,0,0,0-.28-.06c0,.06,0,.08-.08.08v-.08c-.51,0-.89.45-1.15,1.24L153,44.45q-2.52,5-2.52,5.13a8.86,8.86,0,0,0-.84,1.91c-.22.79-.43,1.18-.63,1.18l0,.29a24.52,24.52,0,0,1-1,2.54q-1.55,4.45-1.44,6.21l0,.45c0,.14.26.24.73.31l.08,0q1.53-.09,3.85-2.28c1.21-1.17,2.19-2.19,2.94-3,.52-.46,1-.94,1.49-1.44a26.38,26.38,0,0,0,2.07-2.26c.66-.54,1-1,1-1.23h.18a5.23,5.23,0,0,1,.13.71.17.17,0,0,0-.15.18l.1.45c-.23,0-.47.32-.73.92-.09,0-.17.11-.24.28v.08h.26l0,.16-.34.13a.86.86,0,0,1-.13-.37c-.49.61-.73,1-.71,1.21a.68.68,0,0,1,.11.26l-.19,0v-.19h-.18c0,.13.08.19.18.19l-.08.18v.08h.19c0,.09-.06.17-.24.26l-.18-.08a1.19,1.19,0,0,1-.66,1c-.33.35-.49.57-.47.66l-.18-.08c0,.21-.12.4-.42.58a24,24,0,0,1-2.67,2.9c0,.11-.15.28-.5.5,0,.21-.21.37-.68.47A3.83,3.83,0,0,1,149.38,64a4,4,0,0,1-1,.23l-.19-.08-.08.19a4.11,4.11,0,0,1-2-.74,2.87,2.87,0,0,1-.58-.86l.08-.18a7.92,7.92,0,0,1-.5-1.84q-.13-2.07,1.91-7.2c.14,0,.27-.36.4-1,.12,0,.32-.55.6-1.55.12,0,.23-.18.31-.55s.28-.72.47-.73v-.27l-.1-.18q.14,0,.39-.63c.09-.14.18-.21.26-.21l-.1-.15a9.64,9.64,0,0,1,1.41-2.68l-.1-.18c.24-.33.93-1.62,2-3.85v-.11l-.18,0-.6.13v-.08l-.19.08-1,.08-2.1.5-2.17.68c-.13,0-.41-.19-.84-.58l-.08,0,.05-.47-.18,0c.07-.62.16-.92.29-.92v.08a30.58,30.58,0,0,1,3.22-1c.05,0,.09,0,.1.08a11.27,11.27,0,0,1,1.92-.31l0,.07.42-.18v.08l.18-.11a.82.82,0,0,1,.35.08l.18-.1.18.08a.75.75,0,0,1,.34-.13.11.11,0,0,1,.11.07l.15-.07c.07,0,.11,0,.11.07l.16-.1h.1a.07.07,0,0,1,.08.08c.44,0,.88-.51,1.34-1.42a3.41,3.41,0,0,1,.47-.83.12.12,0,0,1-.11-.08c.09,0,.28-.28.58-.84a.09.09,0,0,1,.1.08A.6.6,0,0,1,155.93,36.35Zm-.23,20.93a1.34,1.34,0,0,1,.1.37.61.61,0,0,1,.26-.1v-.11C156,57.46,155.85,57.41,155.7,57.28Zm.52,0h.18l0-.19A.17.17,0,0,0,156.22,57.26Zm.47-.84v.1l.19.08v-.1Zm.68-.66h.08v.16l.19-.08.07,0c0,.08-.14.24-.41.47Zm.42-.2H158c0,.1-.06.16-.19.18Zm.24-.29h.1v.18h-.07Zm.65-1.1v.34q-.15,0-.15.21h-.27l0-.26C158.33,54.46,158.47,54.36,158.68,54.17Zm-.31.73h.08l0,.16-.1,0Zm.21-2.15c0,.12.08.18.18.16v-.16Zm.63-1c.12,0,.19.07.21.16s-.12.21-.34.31a.5.5,0,0,0-.11-.26Zm-.13-12.23.1.18H159v.1l.26,0V39.5ZM159,52.36h.08a.87.87,0,0,0,.28.08v.08l-.36,0Zm3-13.49,0,.08h.16v-.11Zm.1.15,0,.19h.08V39Zm1.31-.26,0,.08h.26l.08-.18A.66.66,0,0,1,163.45,38.76Zm.08-.26v.08l.37,0v-.08Zm.71-.13a.45.45,0,0,1,.1.24h.26V38.5l-.1-.16c.05,0,.08,0,.08-.1h-.08Zm1.36.6v.08h.18V39Zm2.07-.84.1,0v.18l-.26,0C167.51,38.19,167.57,38.13,167.67,38.13Zm.63.13h.1c0,.14-.26.25-.78.32C167.65,38.4,167.88,38.3,168.3,38.26Zm-.32-.78h.08c.13,0,.19.05.21.16l-.26,0Zm.27,0,.26,0,0,.08-.28,0Z"/><path class="cls-2" d="M136.84,34.57,156.61,24.1l.45.33-17.9,11.06C138.39,35.16,137.62,34.86,136.84,34.57Z"/><path class="cls-2" d="M100.46,23.14,94.06.1,94.5,0l7.73,22C101.62,22.38,101,22.75,100.46,23.14Z"/><path class="cls-2" d="M94,27.38,79.14,2.76l.4-.17,15.8,22.83C94.86,26.05,94.4,26.7,94,27.38Z"/><path class="cls-2" d="M108.75,20.78,107.71,0h.46l2.45,20.42C110,20.52,109.36,20.63,108.75,20.78Z"/><path class="cls-2" d="M116.8,21.24c-.24-.06-.48-.09-.72-.14l5.23-19,.45.1-3.88,19.38C117.52,21.44,117.17,21.33,116.8,21.24Z"/><path class="cls-2" d="M130.24,29.21,147.69,14l.35.28L132.45,29.81C131.72,29.6,131,29.4,130.24,29.21Z"/><path class="cls-2" d="M123.59,23.79,135.35,6.72l.4.21L125,25.06C124.58,24.62,124.09,24.2,123.59,23.79Z"/></g></g></svg>