<svg xmlns="http://www.w3.org/2000/svg" viewBox="0 0 174.95 91.17"><defs><style>.cls-1,.cls-2{fill:#413620;}.cls-2,.cls-3{opacity:0.4;}</style></defs><g id="Layer_2" data-name="Layer 2"><g id="Layer_1-2" data-name="Layer 1"><path class="cls-1" d="M42.3,29.87V30s-.07,0-.08-.11A5.83,5.83,0,0,1,48.27,33l.14.65a4.5,4.5,0,0,1,0,2.07l.19,0L47.92,38h-.08l.13.16-1,2h.13q-1.65,3.1-2,3.15l.14.14.05.24c-.38,0-.63.38-.76,1-.16,0-.36.3-.59.84-.35,0-.57.32-.68.85h0a15.72,15.72,0,0,1,3.61-.76l1.6-.17q5-.45,8,4.51a9.12,9.12,0,0,1,.46,1.38,9.47,9.47,0,0,1,.14,3.53q.13,0,.21.3c-.18,0-.29.15-.32.38l.13,0q-.11,1.92-.48,2l.1.16a43.93,43.93,0,0,1-2.33,6.55,41.19,41.19,0,0,1-4.21,7.14c-.85,1.35-1.38,2-1.6,2.06a14,14,0,0,1-2.61,3c-1.12,1.2-1.82,1.8-2.09,1.82.06.35-1.49,1.68-4.64,4a25,25,0,0,1-6.52,3.18l-.27,0,0-.08a2.43,2.43,0,0,1-1.06.3l-.79.08q-4.08-.44-4.29-1.44-.9.09-3-3.2h.14a8,8,0,0,1-1.23-3L22,77.73a21.56,21.56,0,0,1-.08-8.8H21.8l.76-3c-.07,0-.13-.11-.16-.32.29,0,.51-.64.68-1.85q1.28-3.77,2-5.46l.29,0,.09.3h-.09v0a1.18,1.18,0,0,1-.24-.49q.46,0,.54.27l.06,0-.17-.19a2.63,2.63,0,0,0,.09-.32c-.06,0-.06.13,0,.41l-.36,0-.11-.57c.2,0,.28-.16.22-.43l.33,0,.05.25c.09,0,.13-.07.11-.19v.05l-.3.14-.08-.3a51.1,51.1,0,0,1,3-6.55q-.11-.57.84-1.38l.08.33,0,0c0-.14.24-.39.79-.73l.05-.6.33.08,0,.14c-.09,0-.16-.12-.21-.35.18,0,.26-.08.24-.17l-.19-.24c.2-.45.37-.69.52-.71l-.22-.19H31q-.23,0-.27-.3c.12,0,.43-.37.92-1.05l.11.43L32,45c-.2,0-.32-.08-.38-.3s.15-.37.44-.41l.05.27h0c.2,0,.35-.36.46-1l-.22-.27c.42-.65.61-1.06.57-1.22l.44.13.27,0L33.42,42c.2-.27.31-.39.33-.35l-.36,0c0-.2.15-.42.55-.65,0,.11,0,.16,0,.16a3.55,3.55,0,0,1,.41-.65l.16,0c0,.18-.12.29-.46.33l-.08-.28.65-1.05.35.1H35c-.05-.25.07-.38.38-.4,0,.09,0,.13,0,.13v0l-.16,0c0-.17.09-.45.38-.84l-.35,0c.56-.94,1.1-1.8,1.63-2.58a1.33,1.33,0,0,1,1.05.6l.57.22c.08.34-.59,1.41-2,3.2l-2.38,4.1c-.11.47-.28.73-.52.76l.14.19c-.75.76-2,3.14-3.81,7.14Q28.8,54.36,27.72,57c-.16,0-.45.84-.87,2.47l-.24,0-.09,0,.06,0,0,.17a55.29,55.29,0,0,1-1.88,5.78,4,4,0,0,1-.32,1.11h.19a24.44,24.44,0,0,0-1.17,5.79,21,21,0,0,0,0,5.15l.08.38c.82,3.77,2.35,5.9,4.62,6.41a14.46,14.46,0,0,0,2.3,0l.57,0,.41-.19,0,.16Q36.14,82.68,37.9,81c0,.14.06.22.08.22,1.34-1.36,2.29-2.07,2.85-2.12l.54-.06q-2,2.53-8.09,5.49a5,5,0,0,0-1.35.35v0l.59,0a1.71,1.71,0,0,1,.55-.16l0,.08a18.49,18.49,0,0,0,5.73-3.18,5,5,0,0,0,1.63-1.19,2,2,0,0,0,1.33-1.06,2.2,2.2,0,0,0,1.11-1c0-.12.28-.48.87-1,.75-.85,1.22-1.29,1.42-1.31a1.6,1.6,0,0,1-.49,0A3.33,3.33,0,0,1,43,77.54c.07.29,0,.44-.3.46l.22.24-1.14.11a21.9,21.9,0,0,1,3.47-3.8,10.25,10.25,0,0,1,1.88-2.17A17.94,17.94,0,0,1,49,69.67q2.09-3.37,3.66-6.3,3.69-8.07,2.66-12.84Q54.9,48.7,52,47.46c-.77,0-1.19-.17-1.24-.41,0,0,0,.05.05.16A4.11,4.11,0,0,0,49.71,47l0,.19-.46-.13-1.17.11a19.35,19.35,0,0,0-7.79,2.68,25.42,25.42,0,0,1-3.06,2.58l-.63.06c-.13,0-.35-.12-.68-.41l.16-.49c-.16,0-.26-.08-.29-.3l-.09-.3a39.61,39.61,0,0,1,4-3.28c-.06-.18.51-.91,1.71-2.2a44.85,44.85,0,0,1,3-4.42c2-3.72,2.76-6.43,2.38-8.15-.18-.85-1.19-1.34-3-1.47l-.29,0A20.31,20.31,0,0,0,37.93,33l0-.1-5.19,2.77c0-.13,0-.19,0-.19,0,.18-1.21.95-3.75,2.33q-7.56,5.22-12.51,9Q6.63,54.81,2.66,55.49l-.27,0C1,55.65.23,55.39.08,54.73L0,54.35c.09,0,.13-.05.11-.16,1,0,1.45.07,1.46.16q1.77-.15,14.31-9.58a114,114,0,0,1,11.59-8.31Q36.21,30.86,42.3,29.87ZM24.54,63.75h.08v-.11C24.55,63.67,24.52,63.71,24.54,63.75Zm.33-1.36.24.11.06,0a.4.4,0,0,1,0-.22H25C24.9,62.29,24.85,62.34,24.87,62.39Zm1.38-5,0,.11h-.05v-.08Zm.38-.92-.11.16,0,0a.3.3,0,0,1,0-.19Zm.22.7.24,0,0-.06h0C26.91,57.06,26.85,57.09,26.85,57.12Zm.79-1.22-.27.38h-.11l.27-.38Zm.24-1.08v.08H28v-.08ZM28.37,52a1.27,1.27,0,0,1-.24,1l0,0,.38-.92,0-.14Zm.35-.57q.06.24-.24.27l0,0,.25,0a.52.52,0,0,1,.05-.19Zm.27,1.3h.11a.74.74,0,0,1,.06-.57C29,52.17,28.92,52.36,29,52.72Zm.36-1.43h.16a.28.28,0,0,0,.24-.25c-.05,0-.09,0-.1-.11A.56.56,0,0,0,29.35,51.29Zm.35-1.71,0,.1h0l0-.08Zm.79-.68v0l.27,0-.05-.19h0C30.53,48.74,30.47,48.81,30.49,48.9Zm.27-3,.33-.05.1.43-.35.06Zm.33-.57.35,0,.08.4-.35,0Zm.08-.27.38,0,.08.44-.38,0Zm.19,2.61s0,.06-.08.13l.35,0,0-.06Zm.49-3.75.38,0,.08.46-.36,0Zm0,2.69,0,.11c.07,0,.1,0,.08-.11Zm.25-3.1.32-.05.08.43-.32,0Zm.51,1.5v0c.08,0,.1-.06.08-.19l0,0C32.63,44.83,32.61,44.9,32.63,45Zm.22-1.69.14,0Zm.19.85v0a1,1,0,0,1,.33.08l-.06-.32h-.05C33.09,44,33,44.06,33,44.15Zm.19-2.66.33,0,.1.46-.35,0Zm.46-.68.35,0,.09.43-.33,0Zm.65-7.36,0,.11-.08,0v-.13Zm.3,7.3,0,.11h-.08l.06-.11Zm.46-1.68.06.22c.05.23-.1.36-.46.38l-.06-.22C34.66,39.23,34.81,39.11,35.1,39.07Zm-.05-.54.38,0,.11.43-.38,0Zm.11,2.3v.09h.13v-.09Zm.11-7.46,0-.06.11,0v.08Zm.35-.57v.05a2.42,2.42,0,0,1,.68-.27l-.08,0Zm1-.36v0l.16,0a3,3,0,0,1,.65-.3l0,0h-.06A2.12,2.12,0,0,1,36.6,32.44Zm5,45.89.36-.06-.08.3c.07,0,.12.09.16.27l-.71.38L41,78.84Zm.66-33c0,.09-.28.45-.9,1.09v0c.2,0,.48-.38.84-1.08v0Zm1.87-2.82s0,.11-.05.21H44l.09-.19v0Zm.9,33,0,.08h0l0-.08Zm.35-.46v0c.23,0,.35,0,.35.06a.56.56,0,0,1,.19-.11l-.08-.06A.89.89,0,0,1,45.34,75.07Zm1.9-2.28.11.54-.44-.11L46.4,74c0,.11.08.17.13.17-.09-.37.16-.65.74-.85,0-.21,0-.32.16-.32l-.16-.22.32-.05v0Zm.46-.57,0-.08h.14l0,0Zm1-1.28,0,0,.24,0v0A.46.46,0,0,1,48.7,70.94Zm.85-1.14v.06s.08-.09.13-.25A.14.14,0,0,0,49.55,69.8Zm.32-.6v0l.27,0,0-.05A.42.42,0,0,1,49.87,69.2Zm1.69-2.82a16.15,16.15,0,0,1-.9,1.66c-.16,0-.25.2-.27.54h0a7.12,7.12,0,0,0,1.17-2.17v0Zm.62-.87-.08.14h0v-.11Zm.41-.81-.06.11h-.05l0-.11Zm.32-.84c0,.1-.06.27-.24.48q.07,0,.27-.48Zm.76-1.58h.08a14.66,14.66,0,0,1,.9-2.52l0-.06A15,15,0,0,1,53.67,62.28Z"/><path class="cls-1" d="M65.48,54.33c.35,0,.7.46,1.06,1.38,0,.07,0,.11-.08.11l.08.43v.44c0,.45-.63,1.12-1.9,2a2.49,2.49,0,0,0-.89.51l-2,.71-.16-.11c-.18.07-.27.14-.27.19l-.16-.08H60.6c-.22,0-.55.7-1,2.09a.72.72,0,0,1,.08.24.18.18,0,0,0-.16.19c.11,0,.21.2.32.6a4.83,4.83,0,0,1,.82.35l.16-.08h.24v-.08l.17.08s.08,0,.08-.08a.07.07,0,0,1,.08.08,9.22,9.22,0,0,0,3-1.06v.09c.38-.17.57-.31.57-.44l.16.11h.08c0-.29.23-.43.68-.43,0-.15.19-.33.57-.55,0,.06,0,.08.08.08.22-.2.33-.34.33-.43H67l.16.11q0-.27,1.41-.87a7.29,7.29,0,0,0,1.82-1.49,12.85,12.85,0,0,0,2.55-1.74l.17.08.08-.19c-.06,0-.08,0-.08-.08l.35-.25v.09l-.08.16a.07.07,0,0,1,.08.08c-.09,0-.26.18-.52.54a.52.52,0,0,1,.25.08v-.08l.35.17a1.54,1.54,0,0,0,.49-.17l.16.25a15,15,0,0,1-2.47,2.28,38.48,38.48,0,0,1-7.6,4.88,7.47,7.47,0,0,1-2.14.52,2.85,2.85,0,0,1-3-1.74q-.19,0-.33-1.65h.09c-.06-.18-.11-.27-.17-.27a8.36,8.36,0,0,1,1.33-2.8v-.25h.08l.17.09L60,58.26v-.11l.16.11Q63.37,54.33,65.48,54.33Zm-6.7,5.91v.11c-.08.29-.16.44-.25.44v-.11C58.6,60.39,58.69,60.24,58.78,60.24Zm.24-.59v.16h-.16C58.88,59.7,58.93,59.65,59,59.65Zm2.39-2.09-.33.35c.26-.13.4-.24.44-.35Zm.92-1.14a2.77,2.77,0,0,1-.57.62v.08c.26,0,.47-.23.65-.7Zm.74.35.08.16c-.13,0-.43.35-.9,1A.72.72,0,0,1,62,58v.08h.08a8.84,8.84,0,0,0,3.47-2.25v-.27a.14.14,0,0,0-.16-.16h-.27c-.29,0-.81.37-1.55,1.11Q63.58,56.61,63.07,56.77Zm-.25-1V56c.09,0,.17-.09.25-.27A.55.55,0,0,1,62.82,55.82Zm10.24,1.11h.19V57h-.19Zm.35-.16v.16h-.16A.14.14,0,0,1,73.41,56.77Zm-.16.95h.16v-.16C73.3,57.58,73.25,57.63,73.25,57.72Zm.08.08V58h.08V57.8Zm.16-.95h.16c0,.06,0,.08-.08.08l.08.19v.08h-.16Zm.25.44-.09.19v.16a.15.15,0,0,0,.17-.16c-.06,0-.08,0-.08-.11a.07.07,0,0,0,.08-.08Zm0-.79h.16v.08c0,.13-.06.19-.16.19Zm.08.35H74v.08h-.16Z"/><path class="cls-1" d="M119,30.57h.32c.22,0,.33,0,.33.11-.22,0-.33,0-.33-.11q2.91,0,3.94,4.1l.08.87a11,11,0,0,1-1.6,5.67l-1.12,1.69q0,.35-3.28,4.2a38.13,38.13,0,0,1-3.83,3.62A34.53,34.53,0,0,1,109,54.41l-.87.73c0-.23.08-.35.24-.35a20.13,20.13,0,0,1-3.47,2.39c-.07,0-.94.49-2.61,1.49a97.38,97.38,0,0,1-9.39,4.48.2.2,0,0,1,.22-.22,26.59,26.59,0,0,1-4.54,1.85c-2.19.8-3.3,1.19-3.34,1.19-.72.78-1.07,1.38-1,1.8h0l-.14-.28c-.32.78-.66,1.23-1,1.36,0,.25,0,.38-.14.38v0a1.66,1.66,0,0,1-.79,1.14,7.73,7.73,0,0,1-1.46,2.5A3.61,3.61,0,0,0,80.09,74c-.18,0-.33.28-.44.84-.27,0-.57.41-.89,1.11a2,2,0,0,0,0,.55q-.33,0-1.68,2.28l.22.43c-.38,0-.76.47-1.12,1.41a1.28,1.28,0,0,0-.16.9l-.33-.14c0,.2-.14.38-.43.55,0,.2-.24.66-.76,1.38-.13.67-.23,1-.3,1l0-.06v.52l-.49-.25h.17v-.16l.27.43q-.44.06-.87.93a1.53,1.53,0,0,1,.14.43q-.66.36-.63.54h0a53.58,53.58,0,0,1,8.93-5.29,52.19,52.19,0,0,1,11.54-4,78.58,78.58,0,0,1,8-1.33v0h.16l8.55-.43c0,.07-.11.11-.33.11V75.5l.49.25h1.58c-.07,0-.11-.08-.11-.25l.43.22a1.41,1.41,0,0,1,.55-.08c0,.07-.11.11-.33.11V75.5l.49.25h.71c-.08,0-.11-.08-.11-.25l.49.25H116a1.89,1.89,0,0,1,1.44,1.68l-1.58.43,0-.13c-.38,0-.57.14-.57.32l-.44-.21a1.66,1.66,0,0,1-.65.08v0l0,0h-.16c-.22,0-.32,0-.32,0l0,0h-.3l-.3-.06s-.18.06-.54.06v0l0,0H109q.17,0,.24.27l-.62-.27h-.36l-.92.13v0h-.7c-.38,0-1,0-1.85.13,0,0,0,0-.11,0-1.79.07-2.67.23-2.63.48l-.55-.27h0c.07,0,.11.08.11.25l-.46-.25a.24.24,0,0,0-.19.25l-.87-.14a34.09,34.09,0,0,0-3.39.65c-.24,0-.36,0-.36,0a52.8,52.8,0,0,0-11.13,3.39,44.49,44.49,0,0,0-8.77,4.89,23.32,23.32,0,0,0-4.12,3.12,3.39,3.39,0,0,1-2.15.71h-.35l-.38-.93,0-.51,0,0c-.07,0-.11-.15-.11-.44l0-.22a.51.51,0,0,1,.16-.32c.07,0,.11-.18.11-.54.16,0,.25-.15.27-.44.16,0,.38-.29.65-.87v-.41l.46-.46c.06.22,0,.33-.16.33a3.3,3.3,0,0,1,.6-1.3,6.7,6.7,0,0,1,1.17-1.88l0,.25h.33c0,.07-.17.11-.55.11l-.08-.66c.29,0,.44.08.46.22H73c0,.07-.16.11-.52.11l-.11-.35.79-1.33v-.41l.49.24c-.06,0-.08.08-.06.22-.16,0-.24-.22-.24-.65.16,0,.29-.2.38-.6l.38-.13L74,79.36c.58-.09.85-.31.81-.65a3,3,0,0,1,.76-1.44h.11v.11c0,.07,0,.1-.08.1-.06-.5.06-.76.35-.76v.09l-.19-.33,1-.92c0,.2,0,.3-.11.3l.46-.76.43-.22h-.38V74.5q.73-1.14,1.14-1.14c0,.07,0,.11-.19.11l0,0v0L78,73.14l.41-.54,0,0a3.12,3.12,0,0,0,.92-1.6c.11,0,.24-.17.38-.52l.38.19h-.16v.17l-.16-.28a.92.92,0,0,0,0-.7l.49.22,0-.06-.19-.3.74-.38v.36h-.36l0-.44c.21,0,.33.07.35.22-.09,0-.14-.16-.14-.46l.55-.3c0,.14,0,.22-.14.22L81,69l-.08-.32c0-.29.25-.44.65-.44,0,.08-.12.11-.36.11l0-.35.24.11c0-.06,0-.14.17-.25a.85.85,0,0,1-.08-.48h.38l-.06,0v.46h-.13c.09-.65.2-1,.35-1l-.14-.22c.24,0,.37.08.38.22h.11a58.93,58.93,0,0,1-8.85,1.63c-2.8.22-4.37.37-4.7.46a.75.75,0,0,0-.4-.13h-.11c.07,0,.11,0,.11.13-1.22-.18-1.85-.49-1.9-.92l0-.05c-.16-.06-.27-.32-.32-.79V67c0-.29.15-.43.46-.43.13.07.18.1.16.1v-.24l.49.24c-.11,0-.16-.08-.16-.24l.43.22a1.49,1.49,0,0,1,.65-.08v.08c.4,0,.59-.1.57-.19.37,0,.56,0,.57.08a48.66,48.66,0,0,0,7.47-1v.13a32.14,32.14,0,0,0,5.24-1.35c1.52-.28,2.25-.65,2.2-1.12q.65-.24,5.35-7.46h.27l-.08,0c0-.36,0-.55.16-.57v0l0-.52c.21,0,.47-.18.76-.54.27,0,.59-.43,1-1.28l.11.06v.38a2.91,2.91,0,0,0-.59,0c.36-.42.52-.74.48-1h.41l.06,0a1.79,1.79,0,0,1,.81-.79c-.05-.43.06-.65.35-.65l0-.38.59-1,.38.17s-.07.07,0,.21h-.27c0-.43.25-.65.59-.65,0,.07,0,.11-.13.11a.21.21,0,0,0,0-.19l0-.71.54.25,4.45-5.19,0,0L99.12,43l.73-.38c0,.16-.11.24-.35.24l0-.46.22.11a6.27,6.27,0,0,0,.84-.38,68.26,68.26,0,0,1,5.69-5.24q2-1.57,5.77-4A12.75,12.75,0,0,1,119,30.57ZM106.4,39.34l-1.8,1.17.17.3a4.66,4.66,0,0,1-1,.19c0-.08.11-.11.33-.11,0,.14-.1.22-.28.22l-.08-.33H104v.49l-.38.11c-.05-.18,0-.27.22-.27a1.05,1.05,0,0,0-.16.76h-.44l.09,0a6.37,6.37,0,0,0-1.17.87c0-.23.09-.35.27-.35A.85.85,0,0,1,102,43a.53.53,0,0,1-.38.57V44l-.19-.11q0,.18-1.08,1.11v0c0,.11-.32.39-1,.84,0,0-.94,1.16-2.72,3.48h0l0-.19.25.52a1.4,1.4,0,0,0-.93.48,1.31,1.31,0,0,0-.3.82c-.3,0-.66.38-1,1.14,0,.11-.32.39-1,.84q-.06-.24.27-.24l0-.19.16.32c-.61.64-.87,1-.78,1l0-.05V54c-.2,0-.29.16-.27.49l-.25-.14v-.46h.11a1.73,1.73,0,0,1-.62,1.3c-.2,0-.26.18-.17.55h-.1l0,0a1.24,1.24,0,0,0-.65,1.09l-.22-.11c0,.18-.22.45-.7.81a1.1,1.1,0,0,1-.36.71l.06.38c-.2,0-.52.32-1,1a6.38,6.38,0,0,1-.79,1.09h-.73c0-.07.16-.11.54-.11l0,.49-.19.27c-.05,0-.08.18-.08.55-.16,0-.35.21-.57.65h-.46c0-.08.09-.11.27-.11q-.2.54-.27.54l-.14-.24A24.47,24.47,0,0,0,91,61.11q4-1.44,4.7-2.2v.3A69,69,0,0,0,106.83,53a50.52,50.52,0,0,0,9.15-7.9,27.72,27.72,0,0,0,5-7,11.35,11.35,0,0,0,.81-3.77c-.45-1.27-1.13-1.9-2-1.9a5.32,5.32,0,0,0-1.31-.11Q114.43,32.69,106.4,39.34Zm-6.06,4.43a.23.23,0,0,0-.16.27h.08S100.27,44,100.34,43.77Zm1.33-1v-.21a.19.19,0,0,0-.22.21Zm.79-.86v-.33h-.22v.33Zm1.36-1.2.08-.22h-.38l-.08.22Zm14.47,3.1V43.6c-.13,0-.18-.05-.14-.16v.16C118.28,43.6,118.32,43.66,118.29,43.77Zm1.65-2.12,0-.22h-.33l0,.22Z"/><path class="cls-1" d="M116.82,55.36H117a.11.11,0,0,1,.11.08l.14-.08h.11a2.23,2.23,0,0,0,.54.65c-.07,0-.09,0,0,.08l.38.35a.86.86,0,0,1-.33.57,4.56,4.56,0,0,1-.6,1.63A11.27,11.27,0,0,0,115.54,64h.09l-.11.35a.93.93,0,0,0,1.06.82l0,.08.17-.08.16,0a.12.12,0,0,1,.11.08l.13-.08.19.08a16.37,16.37,0,0,0,4-1.76,51.71,51.71,0,0,0,5.59-4.67l.19.08c0-.2.23-.48.79-.84l.35-.35.16.08c.17,0,.23-.12.19-.36l.17.09-.11-.17c0-.11,0-.16.13-.16h.08l.19.41v.08l-.16-.08a.5.5,0,0,1-.11.35l0,.08a2.75,2.75,0,0,0,.76-.79h.08l0,.17h.08c0-.06,0-.08.05-.08l.14.16a.33.33,0,0,0-.3.27c-.13,0-.24.12-.35.35-.17,0-.24.06-.22.17a.11.11,0,0,1,.11.08l-.41.08c0,.13.1.18.19.16l0-.16H129a.1.1,0,0,1,.1.08l.55-.24-.14-.19c.06,0,.21-.11.46-.33l0,.16H130c0-.34.17-.49.65-.43a.78.78,0,0,0-.38.16l.11.16,0,.09-.27-.17,0,.19.16,0a1,1,0,0,0-.06.27h-.24l-.16-.08-.06.16h.25c0,.09,0,.18-.19.27l-.06-.19h-.08a.16.16,0,0,0-.11.19h.08a2.63,2.63,0,0,1-.81,1l-.22-.08.08.24h-.19l.06-.16,0-.08h-.16l.11.16c-.17,0-.24,0-.22.08a.55.55,0,0,1,.11.25q-1.57,1.38-6,5.1-3.19,1.94-4.83,2l-.22-.09s-.07,0,0,.09a3.38,3.38,0,0,1-2.31-1.12c-.11,0-.18-.11-.22-.35H115a7.44,7.44,0,0,1-.78-1.9,5,5,0,0,1,.51-3l.14-.16-.14-.16c.09-.24.22-.36.38-.36v-.08l-.13-.16c.12,0,.23-.31.32-.92.15,0,.28-.17.41-.44-.05,0-.08,0-.08-.08a4.73,4.73,0,0,0,.84-1.71h.08a.11.11,0,0,0,.11.08,3,3,0,0,1,.22-1.11Zm4.91-4.75,0,.19q0,.24-.3.24l0,.08h.16l-.05.17a.54.54,0,0,1,.24.08c0-.13.12-.21.41-.25l.11.17c-.06,0-.08,0-.08.08h.08c0-.11,0-.17.13-.17a.19.19,0,0,0,.19.17l.09.32a12.45,12.45,0,0,0-2.5,1.82c0,.18-.22.33-.71.44h-.08a.9.9,0,0,1-.51-.49l.16-.08-.33-.49,0-.08C118.65,52.17,119.64,51.44,121.73,50.61ZM126.49,60h.16q0-.13.6-.51l.1.16c-.19,0-.29.23-.29.68.54-.58.88-.87,1-.87l0-.16H128c-.22,0-.31.17-.27.35h-.08q-.1,0-.3-.24l.65-.44,0-.27C127,59.43,126.47,59.86,126.49,60Zm0,.25.08.27h.17c.07,0,.13-.11.19-.27v-.08ZM128,59v.08l.32.17-.05-.17A.57.57,0,0,1,128,59Zm.35.08.06.17h.08l-.06-.17Zm0-.76.19,0-.06-.17A.15.15,0,0,0,128.36,58.34Zm.19-.27,0,.08h.25l0-.08Zm.38.68-.11.25v.08H129a.47.47,0,0,1,0-.33Zm.43-1.79.11.16c0,.09,0,.18-.19.27h-.08l-.08-.35A.52.52,0,0,0,129.36,57Zm.17-.08h.16l0,.16h-.17Zm.57.32h.16v.09h-.16Zm.46.41h.19l0,.08h-.17Z"/><path class="cls-1" d="M133.11,54.35h.08c.06,0,.08,0,.08.09l.19-.09c.46,0,.84.62,1.14,1.85.11,0,.35-.53.71-1.57.34,0,.51.1.51.16v.27H136l-.08.16c.15.24.29.36.44.36,0,.3,0,.46.16.46a6.62,6.62,0,0,0-.87,2.63c-.2.65-.34,1-.43,1l.08.16v.11h-.16V60h.16l-.16.27h.08l-.19.6a.1.1,0,0,1,.11.11c-.13,0-.19,0-.19.08a.72.72,0,0,1,.08.27c-.09,0-.17.17-.25.52.06,0,.08,0,.08.08s-.29.15-.62.46v.08h.08c0-.18.16-.27.46-.27v.19h-.19l.08.16v.08l-.16.28.08.19c-.07.29-.19.43-.35.43v.08c.13,0,.19,0,.19.08l-.19.36h.08a2,2,0,0,1-.24.62.07.07,0,0,1,.08.08l-.19.08.11.19a1.84,1.84,0,0,1-.55,1.22h.19v.28c0,.41-.11.62-.35.62v.08l.16.27c-.07,0-.19.15-.35.44v.19h.19v.16h-.27v.08l.08.63c-.11,0-.16,0-.16.08l.08.19a1.19,1.19,0,0,0-.35.79l-.19-.09-.17.09V70l.09-.19h-.09l-.19.28v.19l.19-.11c.19.07.28.13.28.19s-.09.27-.28.27l.17.24h-.08l.08.19v.08c-.22,0-.39.21-.52.63l.08.51v.28H132a.67.67,0,0,1,.08.27.72.72,0,0,0-.08.27l-.19-.11v.11a.72.72,0,0,1,.08.24c-.25.37-.42.55-.51.55v.08c0,.12.09.19.27.19v.08c0,.11-.12.16-.36.16v.11h.17q0,.6-.36.6l.09.19v.08c-.13,0-.25.12-.36.35H131l-.27.36h.08c0-.06,0-.09.11-.09v.09q0,.14-.27.27l.08.16v.08l-.35.46h-.16v.08h.16v.17h-.16l.08.19c-.13,0-.19,0-.19.08v.27a2.79,2.79,0,0,1-.71,1.06l.19.08a.07.07,0,0,1,.08-.08V79c0,.24-.17.35-.35.35l.08.19h-.24v.17l.16-.09v.09c0,.12-.06.19-.16.19a.1.1,0,0,0-.11-.11l.11.19a.48.48,0,0,0-.11.27H129V80h-.09v.19c.06,0,.09,0,.09.08-.18,0-.28,0-.28.16v.19l.11.17h-.11l-.16-.08-.08.19h.16a.68.68,0,0,0-.16.43l-.19-.08v.08l.08.16-.16.11c0-.07,0-.11-.08-.11l-.11.19h.19c0,.11-.09.17-.27.17l.08.19c-.11.28-.28.43-.52.43l.08.19v.08l-.51.52.08.19c-.24,0-.35.11-.35.27h.08c0,.11-.24.37-.71.79,0,.36-.78,1.21-2.36,2.55a13.24,13.24,0,0,1-2.58,1.49v.08l-.16-.08c-.24.09-.35.18-.35.27s-.09,0-.09-.08a13,13,0,0,1-1.33.25v-.09h-.08v.19h-.11l-.24-.19v.19h-.11c0-.14-.14-.23-.43-.27v-.08h-.08v.16H118c0-.18-.18-.35-.52-.51l-.19.08a5.52,5.52,0,0,0-1.14-1.14c0-.15-.12-.33-.35-.54l-.44-1.23h.16l-.08-.19V85h.19v-.08h-.19l.08-.19v-.16a.64.64,0,0,0-.08-.36.75.75,0,0,1,.44-.54v-.08H116a.72.72,0,0,0,.08.27.57.57,0,0,0-.08.27h.08l-.08.16v.09h.16v.19H116v.35q.18,0,.24.51s-.08,0-.08.09h.08c0,.07,0,.1-.08.1,0,.75.59,1.33,1.76,1.77a.56.56,0,0,1,.28-.11.5.5,0,0,0,.27.11c0-.07,0-.11.08-.11s.07.19.16.19.11,0,.11-.08l.16.08h.36l.27-.19c0,.07,0,.11.08.11s.26-.21.79-.35a18.74,18.74,0,0,0,2.57-1.69v-.19h.09l.16.11v-.11s-.08,0-.08-.08A8.48,8.48,0,0,0,125,83.27a1,1,0,0,1,.52-.6v-.11c-.06,0-.08,0-.08-.08q.3-.11.78-1.14c.15,0,.3-.21.47-.62.07,0,.15-.1.24-.28v-.08h-.16a1.81,1.81,0,0,0,.7-.79s-.08,0-.08-.08.31-.32.6-1c-.06,0-.08,0-.08-.09.18,0,.41-.35.7-1.05,0,0-.08,0-.08-.11s.26-.32.44-1q.07,0,.27-.36c-.06,0-.08,0-.08-.1a.15.15,0,0,0,.16-.17h-.08c.32-.7.5-1.06.51-1.06v-.08l-.08-.19c.18,0,.54-.88,1.06-2.63a8.41,8.41,0,0,0,.44-1.25h-.09a3.79,3.79,0,0,0,.36-1h-.08a15.14,15.14,0,0,0,.78-2.47h.08c0-.07,0-.11-.08-.11.06-.33.38-1.49,1-3.5H133l.51-1.87h.19v-.09h-.19l.28-1.22a.71.71,0,0,1-.28.08c0,.06,0,.08.09.08l-.17.36c.06,0,.08,0,.08.08-.23.09-.35.18-.35.27s.08,0,.08.08-.24.21-.51.63l-.36.27q0,.27-.78,1.14a.07.07,0,0,1,.08.08l-.35.11.08.16a3.74,3.74,0,0,1-1,.79l.11.19a4.45,4.45,0,0,0-1.17.79,2.42,2.42,0,0,1-.6.16c0-.06,0-.08-.11-.08v.19h-.43l-.16-.11v.11c-1.07-.2-1.6-.74-1.6-1.6,0-.09,0-.57-.09-1.42a16.28,16.28,0,0,1,2.47-4.83q1.37-1.68,1.77-1.68l-.08-.19.35-.25c0,.06,0,.09.08.09v-.19l.17.1.19-.27h-.09a1.82,1.82,0,0,1,1.5-.87h.35ZM115.9,82.91H116a.18.18,0,0,1,.16.19.15.15,0,0,1-.16.17l-.11-.17Zm.35-1h.11c0,.11,0,.17.08.17l-.19.7a.72.72,0,0,0-.24-.08C116,82.23,116.12,82,116.25,82Zm14.82-24.43c0-.05,0-.08-.08-.08A6.24,6.24,0,0,0,129.85,59c-.31.2-.46.35-.46.44h.11c-.2.47-.41.7-.63.7l.09.19c-.08,0-.31.38-.71,1.14h.08a5.34,5.34,0,0,1-.7,1.33c.12,0,.19,0,.19.09a.91.91,0,0,0-.19.43h.1a1.1,1.1,0,0,0-.19.54V64a.6.6,0,0,1,.28.09q1.68,0,5.45-5.73a.91.91,0,0,0,.36-.63h-.09l.09-.16v-.08c-.17,0-.25-.16-.25-.46v-.87l.08-.19h-.27c-.27,0-.74.3-1.41.89-.34.26-.52.47-.52.63Zm-3.53,3v.19h.09v-.19Zm.19-.71v.11A.69.69,0,0,1,128,60v-.08l-.16-.11Zm.52,19c0,.23-.09.35-.27.35a.17.17,0,0,0,.19.16.88.88,0,0,1,.16-.43v-.08Zm.08-19.58-.08.17h.08l.11-.17Zm0-.27V59l.19.08V59Zm.35,19a.51.51,0,0,1-.08.27h.08l.11-.16V78Zm.11-19.46-.11.16h.11l.08-.16Zm.44,18.16c0,.16-.07.24-.19.24v-.16H129a.68.68,0,0,1-.09.35.78.78,0,0,1,.28.09,1.08,1.08,0,0,0,.16-.44v-.08Zm.08-19.06a.79.79,0,0,1-.16.44h.08a1.07,1.07,0,0,0,.16-.25v-.19Zm.19,18.16v.09c0,.07,0,.1.08.1,0,.17-.12.25-.35.25v.11a.14.14,0,0,1,.16.16h.11a2,2,0,0,1,.24-.71Zm.24-18.59a.62.62,0,0,1-.16.35h.08l.27-.35Zm.11,18.16a.58.58,0,0,1-.19.35h.19a1,1,0,0,1,.08-.27v-.08ZM129.66,78c0,.13.08.19.19.19V78Zm.19-2.9v.08H130v-.08Zm.36-.6a1.42,1.42,0,0,0-.19.44V75h.08a.83.83,0,0,1,.19-.44v-.08Zm.7-2.58V72h.25l.1-.19h-.1A.69.69,0,0,1,130.91,71.89Zm0,.46v.17H131v-.17Zm.08-.27v.08h.17v-.08Zm.08,2.83h.19v-.19A.18.18,0,0,0,131.07,74.91Zm.19-1.61v.19h.09V73.3Zm.17-2.55a.72.72,0,0,1-.08.27v.08h.08a.72.72,0,0,1,.08-.27v-.08Zm.08-.51v.08h.19v-.08Zm.11,3.42h.16v.1h-.16Zm.24-12.52-.08.19h.08l.11-.19Zm0,10.32a.72.72,0,0,1-.08.27h.08l.11-.19v-.08Zm.11-2.55v.16h.08v-.16Zm.24-8.28-.08.16v.08h.08a.53.53,0,0,1,.11-.24Zm.19,10.83v.27h-.27Q132.13,71.6,132.4,71.46Zm-.08-4a.66.66,0,0,1-.11.44h.11a1.13,1.13,0,0,0,.17-.44Zm-.11,4.4h.19v.08h-.19Zm.36-2.9-.08.16v.11h.08a.43.43,0,0,1,.11-.27Zm.27-1.06h.08a.83.83,0,0,0,.19-.27v-.09Q133,67.49,132.84,67.85Zm.27-7.5a.86.86,0,0,1,.08.36l.19-.08a.66.66,0,0,1-.11-.36Zm0,6.36.16.08v-.27A.17.17,0,0,0,133.11,66.71Zm.16-1h.27a.69.69,0,0,1,.09-.27h-.09Q133.4,65.46,133.27,65.73Zm.36-.9a.87.87,0,0,1-.25.46h.25a.56.56,0,0,1,.1-.35v-.11Zm-.17-5.18v.08h.17v-.08Zm.27,4.75v.19c.11,0,.17-.06.17-.19Zm.09-5.11v.17a.15.15,0,0,0,.16-.17Zm2.11-4.58H136v.16h-.08Z"/><path class="cls-1" d="M148.29,42.79c.77.11,1.18.35,1.22.73.14,0,.28.07.41.27l-.06.14a.75.75,0,0,1,.19.46,9,9,0,0,1-1.36,3.15l.08.16v.08c-.19,0-.3.18-.32.49-.2.33-.34.5-.41.52l.08.13a10.43,10.43,0,0,0-1.46,2.26q-3.94,5.57-4.62,5.64a1.16,1.16,0,0,1-.89.55l-.33-.36a.48.48,0,0,0,0-.29l-.33.4a1.13,1.13,0,0,0-.24,0l.16.22,0,.16c-.13,0-.25.13-.36.35l.09.14c0,.16,0,.24-.19.24l.08.16v.09c-.18,0-.33.29-.44.81l-.21.16a.69.69,0,0,1,.08.25.42.42,0,0,1-.27.32.41.41,0,0,1,.1.22h.09c0-.18,0-.29,0-.33h.08l.17.06q0-.16.57-.6l0-.08a.12.12,0,0,1,.11.08,8.43,8.43,0,0,1,1.44-.92v-.08l.16,0H142a3.4,3.4,0,0,1,.73-.38,1.59,1.59,0,0,1,1.53.54,1.37,1.37,0,0,1,.86.93.75.75,0,0,1,.11.38l0,0-.05.41h.08a4,4,0,0,1-.27,1.25l0,.08a.07.07,0,0,0,.08.08,5.93,5.93,0,0,0-.35,1.2l.08,0a3.41,3.41,0,0,0-.13.87l.08.16c-.15,0-.22.07-.22.16h.16a1.61,1.61,0,0,0,.6-.3c0,.06,0,.08.08.06.76-.65,1.13-1,1.12-1.11l.16.05a1.2,1.2,0,0,1,.57-.6c0,.06,0,.08.08.08v-.08a.11.11,0,0,1-.11-.08l.16-.08v.16l.09,0c0-.2.23-.51.76-.93a8.1,8.1,0,0,1,1.65-1.33c.18-.22.67-.7,1.47-1.46a.07.07,0,0,0,.08.08c0-.17.31-.51,1-1,0-.09.23-.38.7-.85l.08,0a2.51,2.51,0,0,1-.21,1v.08h.08c0-.09.09-.25.32-.49V57c.24,0,.41.12.52.49h-.08l.08.16a1.72,1.72,0,0,1-.73,1.14,7.74,7.74,0,0,0-1.44,1.71l-.16-.06a17,17,0,0,1-2.48,2.42c0,.2-.27.4-.7.6a7.33,7.33,0,0,1-1.28,1.3s0-.08-.08-.08-.07.16-.22.27c0,0,0-.08-.08-.08a1.24,1.24,0,0,1-.11.33h-.08l-.16-.06a1.09,1.09,0,0,1-.81.46v0l-.14.08-.79.08-.4-.19,0,.08a1,1,0,0,0-.4-.13l.05-.17-.14,0,.06-.16c-.11,0-.26-.23-.46-.73,0-.06,0-.09,0-.09a4.1,4.1,0,0,1-.22-.76,2.82,2.82,0,0,1,.33-1.33h-.08a6.92,6.92,0,0,0,.32-1.49.1.1,0,0,1-.1-.08c.16,0,.26-.39.29-1.11l-.19-.22-.13.11c-.06,0-.08,0-.08-.08a6.53,6.53,0,0,0-1.8.81c-.52.38-.78.61-.78.68s-.17.26-.49.52c0,0,0,.08-.06.08a.08.08,0,0,0-.08-.06,2.57,2.57,0,0,1-.78.84,19.85,19.85,0,0,1-1.2,1.9c0,.29-.23.71-.79,1.25a.7.7,0,0,0-.29.11.08.08,0,0,0-.11-.05l0,.05c-.25,0-.48-.19-.7-.68a1.44,1.44,0,0,0-.25-.3l.11-.46a.48.48,0,0,1-.11-.3c0-.3.05-.48.25-.51l-.08-.14.13,0-.08-.14h.08l-.11-.16v-.06l.17.06a.56.56,0,0,1,.24-.57l-.08-.14V62a5,5,0,0,0,.81-2l.38-.73a.68.68,0,0,1,.33-.65h.08a.11.11,0,0,0-.11-.08c.18-.53.34-.8.46-.82s0-.08-.08-.08l.65-1.14s0-.08.09-.08,0,.07.08.06v-.06c-.11,0-.17,0-.17-.13l0-.09q0-.18.3-.27l-.11-.13.65-1.31c.13,0,.19-.15.19-.4l.6-.93-.09-.13.36-.27s0,.07.08,0v-.08c-.11,0-.16,0-.16-.14a.76.76,0,0,0,0-.21l.16,0h.08l0-.08c0-.06,0-.08-.08-.08.3-.8.55-1.21.73-1.22,0-.06,0-.09-.08-.09a1,1,0,0,0,0-.24c.06,0,.08,0,.08.08l.22-.11,0-.13-.08-.17.14-.08c0,.06,0,.08.11.06s.06-.22.24-.49l-.16,0v-.17l.16.06,0-.22h.08v.14h.09a1.57,1.57,0,0,1,.1-.63l.33.19h.14v-.16l-.33,0v-.09a.18.18,0,0,1,.14-.16l.16.06s0-.07.08-.09l-.11-.13v-.08c.17,0,.24-.08.22-.17s-.17-.2-.19-.21l.16-.11.17.05a.27.27,0,0,1,.05-.21h-.08a.07.07,0,0,1-.08.08v-.08c.11-.26.2-.39.27-.41H144l-.05.16.13,0a2.65,2.65,0,0,0,.06-.32q-.09,0-.09-.06l.14-.08a.34.34,0,0,0,.27.27v.17l.08,0a1.17,1.17,0,0,1,.19-.41l-.16,0-.14.11c0-.11-.07-.17-.16-.17a.11.11,0,0,1-.08.11v-.08a1.73,1.73,0,0,0,.14-.24.45.45,0,0,1,.24.1A.89.89,0,0,1,145,47v-.09l-.38.06v-.08l.06-.17-.16.09h-.06a.82.82,0,0,0,.19-.41h.08l.14.05.08-.13a.55.55,0,0,1-.11-.25l.57-.59v.08l-.13.24c.09,0,.22-.19.4-.57h-.16c0-.11.06-.16.14-.16l0,.08.14-.11c.11,0,.16.07.16.14s-.1.25-.35.27l.08.16c-.05,0-.18.19-.38.57v.08h.08c.15,0,.21-.15.19-.4l.16,0,.52-.84s-.06,0-.08-.06l-.14.09-.08,0,0-.4h.08c.11,0,.17,0,.19.13a.07.07,0,0,0-.08.08h.08v-.08l.14.06.16-.09a.21.21,0,0,0-.27-.21q1-1.34,1.65-1.41v-.06h-.24l-1,.73v-.08A2.73,2.73,0,0,1,148.29,42.79Zm-8.56,13.65-.1.25v.08c.07,0,.13-.14.19-.35Zm.76-1.71,0,.17a.17.17,0,0,0,.14-.19Zm.47-.89V54l.08,0v-.13Zm.19-.25.08,0a.82.82,0,0,0,.19-.49Q141.29,53.11,141.15,53.59Zm6.13-8.47a.09.09,0,0,0-.08,0l.08.13a2.13,2.13,0,0,1-.62.68c-.08.38-.16.57-.25.57l-.08,0-.16-.08c-.11.27-.23.42-.35.43v.08c.1,0,.16,0,.16.06q-.27.57-.54.6v.08l.08.13c-.2,0-.31.19-.33.52H145v-.14H145c-.11,0-.16.08-.14.17v.08c.16,0,.25,0,.25.13l-.14.09c0-.06,0-.08-.08-.06v.06l.08.16c-.31,0-.45.11-.43.27l.16,0q0,.13-.27.27l0-.16c-.11,0-.15.1-.14.19v.06h.25v.13h-.08l-.17-.05c0,.16-.05.24-.1.24l.08.16,0,.14a4,4,0,0,0-.73,1.17s.06,0,.08.08c-.16,0-.23.11-.21.32l-.17-.08-.13,0v.16l.16,0,0,.24-.3,0,.16.21c-.11,0-.14.11-.11.33h-.08l-.16,0-.06.13v.08l.08.17a3.81,3.81,0,0,1-.67.92l.16,0c0,.11,0,.16-.14.16l-.16,0v.08H142a6.28,6.28,0,0,1-.51,1l.57-.46c0,.05,0,.08.08.08A9.2,9.2,0,0,1,143.35,53c0-.25,0-.39.19-.41,0,.06,0,.08.08.08l.13-.24-.16.08h-.05s.14-.17.48-.35a1.29,1.29,0,0,0,.25-.65l.16.08c.51-.76,1-1.5,1.58-2.2l-.09,0c0-.1.08-.21.28-.36,0-.11.16-.33.54-.68l-.08-.13c0-.09.14-.26.49-.52v-.08c-.06,0-.09,0-.09,0a16.6,16.6,0,0,0,1.74-3.29v-.16A3.28,3.28,0,0,0,147.28,45.12Zm-5.75,7.58,0,.13c.09,0,.14,0,.14-.16Zm.78-1.5,0,.17c.09,0,.14-.06.14-.17Zm.19-.32,0,.16h.08l0-.16Zm.06-.3v.08l.24,0,0-.08Zm.46-.68,0,.16.08,0,0-.14Zm.14-1.17.13,0a.15.15,0,0,1-.13.19Zm.7,3.26.16,0v.09l-.16,0Zm1-5.13.17,0,0-.16C144.92,46.71,144.87,46.77,144.89,46.86Zm.14-.81h.16v-.17C145.08,45.92,145,46,145,46.05Zm.16,1.38-.08.16.16.06.08-.14Zm.16-2.09.17,0c0,.11-.05.17-.14.17Zm.76-1h.09v.16c-.08,0-.17.07-.28.19l0-.08Q145.9,44.56,146.11,44.39Zm.36-.33v.06c0,.09-.05.18-.19.27h-.08l0-.08C146.17,44.24,146.27,44.15,146.47,44.06Zm.05,5.19-.13.24.08,0,.13-.25Zm.08-5.38h.08c0,.11,0,.17-.13.17l-.08,0A.17.17,0,0,1,146.6,43.87Zm.19.38h.08c0-.1.06-.17.22-.19l0-.16C147,43.92,146.9,44,146.79,44.25Zm.19,4.16a1.13,1.13,0,0,1,0,.24H147l.05-.16v-.08Zm.27-.41,0,.16.06,0V48Zm1-1.74a1.45,1.45,0,0,1-.38.76l0-.16-.13.08.08.16,0,.09-.22.32,0,.08.08,0a10.28,10.28,0,0,0,.62-1.31ZM148,47.32l.16,0,0-.17C148,47.17,147.94,47.23,148,47.32Zm.62-2.17-.1.33h.08l.11-.33Zm3.75,13.19,0,.14c.09,0,.13,0,.13-.16Z"/><path class="cls-1" d="M161.59,40.78q.27,0,.57,1.41l-.11,0,.11.16v.11c-.33.69-.54,1-.65,1v.19c.12,0,.19,0,.19.08,1.21-.2,2-.31,2.47-.35l.38.08a.58.58,0,0,1,.24-.11l0,.08a1.36,1.36,0,0,1,.43-.21v.08a9,9,0,0,1,1.55-.46l.35.08,1.2-.27c.05,0,.08,0,.08.08a5.74,5.74,0,0,0,1.71-.57,1.22,1.22,0,0,0,.49.16c0-.11.31-.25,1-.43V42l.43-.22,0,.19h.08c0-.13,0-.19.08-.19a.48.48,0,0,0,.27.06c0-.15.39-.29,1.17-.44a.12.12,0,0,1,.08-.11h.11v.19l.19,0-.11-.17.38,0c.06,0,.08,0,.08.08a1.16,1.16,0,0,1,.55-.22v.08c0,.2-.21.31-.52.33,0-.08-.05-.1-.11-.08s-.51.3-1.52.65l0,.16-.3-.16-1.09.35a.43.43,0,0,0-.27-.05l-.08.19-.19-.09h-.08v.19l.92-.08v-.08l.27,0a.08.08,0,0,1,.09.09c.18-.08.27-.14.27-.19l.19.08a2.6,2.6,0,0,1,1-.36l.38,0q0,.16-.51.51c0,.27-.25.45-.79.52l-.08.16a2.12,2.12,0,0,1,1.06-.32l0,.16a17.16,17.16,0,0,0-2.61.92.92.92,0,0,0-.38-.08l-.08.19-.46-.05H170v.19l-.17,0a8.15,8.15,0,0,1-1,.25l-.93,0-.24.22-.46,0a.1.1,0,0,1-.11-.11l-.43.21a.52.52,0,0,0-.3,0c-.29,0-.44.09-.44.22l-.19-.08a9.22,9.22,0,0,0-2.17.51l-.19-.08-.46,0c-.06,0-.08,0-.08.08l-.65-.14,0,.19-.49,0-.43.11a.54.54,0,0,0-.3-.06c0,.06,0,.08-.08.08v-.08c-.52,0-.92.46-1.19,1.28l-1.23,2.2q-2.6,5.19-2.6,5.32a9.39,9.39,0,0,0-.87,2c-.24.82-.45,1.22-.65,1.22l0,.3a25.84,25.84,0,0,1-1,2.64c-1.06,3.07-1.56,5.22-1.49,6.43l0,.46c0,.15.27.25.76.33l.08,0q1.57-.07,4-2.36c1.25-1.22,2.26-2.26,3-3.15.54-.47,1.06-1,1.55-1.49a24.77,24.77,0,0,0,2.14-2.34c.69-.56,1-1,1-1.28h.19a5.55,5.55,0,0,1,.13.74.17.17,0,0,0-.16.19l.11.46c-.24,0-.49.33-.76.95-.09,0-.17.12-.25.3v.08H164l0,.16-.35.14a1,1,0,0,1-.14-.38c-.5.63-.75,1-.73,1.25a.65.65,0,0,1,.11.27l-.19,0V61.2h-.19c0,.12.08.19.19.19l-.08.19v.08h.19c0,.09-.07.18-.25.27l-.19-.08a1.25,1.25,0,0,1-.68,1.06c-.34.36-.5.58-.48.67l-.19-.08c0,.22-.13.42-.44.6a24.2,24.2,0,0,1-2.77,3c0,.11-.15.28-.51.52,0,.22-.22.38-.71.49a4,4,0,0,1-1.82,1.33,4.66,4.66,0,0,1-1.08.24l-.19-.08-.09.19a4.25,4.25,0,0,1-2.09-.76,3,3,0,0,1-.59-.89l.08-.19a8.38,8.38,0,0,1-.52-1.91c-.09-1.43.57-3.91,2-7.46.15,0,.28-.37.41-1.06.13,0,.34-.57.63-1.6.12,0,.23-.19.32-.57s.29-.74.49-.76v-.27l-.11-.19c.09,0,.23-.22.41-.66q.13-.21.27-.21l-.11-.17q1.24-2.76,1.47-2.76l-.11-.19q.38-.52,2.12-4v-.1l-.19,0-.63.14v-.08l-.19.08-1.08.08-2.18.52-2.25.7q-.19,0-.87-.6l-.08,0,.06-.49-.19-.05c.07-.63.17-.95.29-.95v.08a31.75,31.75,0,0,1,3.34-1c.06,0,.09,0,.11.08a12.31,12.31,0,0,1,2-.33l0,.09.44-.19v.08l.19-.11a.85.85,0,0,1,.35.08l.19-.11.19.08A.87.87,0,0,1,158,44a.1.1,0,0,1,.11.08l.16-.08c.07,0,.11,0,.11.08l.16-.11h.11c.06,0,.08,0,.08.08.46,0,.92-.52,1.39-1.46a3.55,3.55,0,0,1,.49-.87.11.11,0,0,1-.11-.08q.13,0,.6-.87a.09.09,0,0,1,.1.08A.67.67,0,0,1,161.59,40.78Zm-.25,21.69a.94.94,0,0,1,.11.38.77.77,0,0,1,.27-.11v-.11C161.63,62.65,161.51,62.6,161.34,62.47Zm.55,0h.19l0-.19A.18.18,0,0,0,161.89,62.44Zm.49-.86v.1l.19.09v-.11Zm.7-.68h.08v.16l.19-.08.09,0c0,.09-.15.25-.44.49Zm.44-.22h.19c0,.11-.07.17-.19.19Zm.24-.3h.11v.19h-.08Zm.68-1.14v.35c-.11,0-.16.09-.16.22H164l0-.27C164.07,59.54,164.22,59.44,164.44,59.24Zm-.33.76h.09l0,.16-.11,0Zm.22-2.23c0,.13.08.19.19.17v-.17Zm.65-1.05a.21.21,0,0,1,.22.16c0,.11-.12.22-.35.32a.56.56,0,0,0-.11-.27ZM164.85,44l.11.19h-.19v.11l.27,0V44Zm-.08,13.33h.08a.84.84,0,0,0,.3.08v.08l-.38,0Zm3.14-14,0,.08h.16v-.11Zm.11.16,0,.19h.08v-.19Zm1.36-.27,0,.08h.27l.08-.19A.68.68,0,0,1,169.38,43.28Zm.08-.27v.08l.38,0V43Zm.74-.14a.52.52,0,0,1,.1.24h.28V43l-.11-.17c.05,0,.08,0,.08-.11h-.08A1.77,1.77,0,0,1,170.2,42.87Zm1.41.62v.09h.19v-.09Zm2.14-.86.11,0v.19l-.27,0C173.59,42.69,173.64,42.63,173.75,42.63Zm.65.13h.11c0,.15-.27.25-.81.33C173.73,42.91,174,42.8,174.4,42.76Zm-.32-.81h.08c.13,0,.2,0,.22.16l-.28,0Zm.27,0,.27,0,0,.08-.3,0Z"/><path class="cls-2" d="M141.8,35.82,162.29,25l.47.35L144.21,36.78C143.41,36.44,142.61,36.12,141.8,35.82Z"/><g class="cls-3"><path class="cls-1" d="M104.1,24,97.47.11,97.93,0l8,22.81C105.31,23.2,104.69,23.57,104.1,24Z"/><path class="cls-1" d="M97.39,28.37,82,2.86l.42-.18L98.8,26.34C98.3,27,97.83,27.67,97.39,28.37Z"/><path class="cls-1" d="M112.69,21.53,111.61,0h.48l2.54,21.16C114,21.26,113.33,21.38,112.69,21.53Z"/><path class="cls-1" d="M121,22c-.26-.06-.5-.09-.75-.14l5.42-19.74.46.11-4,20.08C121.78,22.22,121.42,22.1,121,22Z"/><path class="cls-1" d="M135,30.26l18.09-15.75.36.29L137.25,30.89C136.5,30.67,135.74,30.46,135,30.26Z"/><path class="cls-1" d="M128.07,24.65,140.26,7l.42.23L129.58,26C129.1,25.51,128.6,25.07,128.07,24.65Z"/></g></g></g></svg>